<?xml version="1.0" encoding="UTF-8" standalone="no"?>
<svg
   xmlns:dc="http://purl.org/dc/elements/1.1/"
   xmlns:cc="http://creativecommons.org/ns#"
   xmlns:rdf="http://www.w3.org/1999/02/22-rdf-syntax-ns#"
   xmlns:svg="http://www.w3.org/2000/svg"
   xmlns="http://www.w3.org/2000/svg"
   xmlns:sodipodi="http://sodipodi.sourceforge.net/DTD/sodipodi-0.dtd"
   xmlns:inkscape="http://www.inkscape.org/namespaces/inkscape"
   version="1.0"
   width="120pt"
   height="50pt"
   viewBox="0 0 120 50"
   preserveAspectRatio="xMidYMid meet"
   id="svg2"
   inkscape:version="0.91 r13725"
   sodipodi:docname="youtube100.svg">
  <metadata
     id="metadata22">
    <rdf:RDF>
      <cc:Work
         rdf:about="">
        <dc:format>image/svg+xml</dc:format>
        <dc:type
           rdf:resource="http://purl.org/dc/dcmitype/StillImage" />
        <dc:title></dc:title>
      </cc:Work>
    </rdf:RDF>
  </metadata>
  <defs
     id="defs20" />
  <sodipodi:namedview
     pagecolor="#ffffff"
     bordercolor="#666666"
     borderopacity="1"
     objecttolerance="10"
     gridtolerance="10"
     guidetolerance="10"
     inkscape:pageopacity="0"
     inkscape:pageshadow="2"
     inkscape:window-width="1366"
     inkscape:window-height="705"
     id="namedview18"
     showgrid="false"
     inkscape:zoom="1.3435029"
     inkscape:cx="63.685865"
     inkscape:cy="162.76316"
     inkscape:window-x="-8"
     inkscape:window-y="-8"
     inkscape:window-maximized="1"
     inkscape:current-layer="svg2" />
  <g
     transform="matrix(0.00704721,0,0,-0.00704721,5.0902972,39.007506)"
     id="g4"
     style="fill:#ffffff;fill-opacity:1;stroke:none">
    <path
       d="m 7320,4554 c -1446,-29 -1752,-47 -1975,-118 -242,-77 -436,-276 -513,-526 -70,-229 -83,-390 -89,-1105 -8,-970 15,-1199 146,-1470 161,-329 371,-430 996,-475 357,-25 885,-34 2095,-34 1757,-1 2324,20 2625,95 273,69 469,261 560,549 35,113 70,323 90,550 32,360 30,1023 -6,1420 -32,369 -113,613 -257,779 -82,96 -269,200 -430,242 -138,35 -474,58 -1162,79 -319,10 -1795,20 -2080,14 z m -796,-724 c 50,-11 75,-37 83,-83 7,-47 -12,-94 -46,-111 -16,-8 -86,-16 -184,-20 -113,-4 -167,-11 -189,-22 -59,-31 -58,-1 -64,-976 -4,-545 -10,-906 -16,-926 -14,-45 -57,-66 -138,-67 -75,0 -114,19 -132,63 -8,19 -13,304 -17,934 -6,899 -6,907 -27,935 -32,44 -58,51 -211,60 -129,8 -145,11 -168,33 -55,51 -35,153 35,177 43,14 1013,18 1074,3 z m 1819,-20 c 15,-12 31,-38 37,-58 5,-20 10,-143 10,-272 0,-129 5,-253 10,-275 5,-22 21,-50 35,-62 41,-36 85,-30 194,26 214,109 304,108 417,-4 117,-115 127,-187 122,-874 l -3,-446 -24,-45 c -37,-70 -79,-118 -129,-148 -42,-24 -57,-27 -137,-27 -79,0 -97,3 -145,28 -30,16 -73,46 -97,68 -23,21 -48,39 -55,39 -7,1 -37,3 -66,6 -58,6 -51,11 -139,-94 -47,-56 -157,-63 -207,-12 l -21,21 0,1037 c 0,984 1,1039 18,1065 22,34 48,46 108,46 32,1 54,-5 72,-19 z m 1872,-575 c 91,-23 199,-80 255,-135 94,-92 136,-220 147,-446 l 6,-130 -31,-35 -30,-34 -286,-7 c -157,-4 -305,-12 -329,-19 -52,-13 -83,-41 -98,-87 -16,-47 -3,-338 18,-412 27,-97 107,-150 225,-150 101,0 176,48 197,125 6,22 17,66 26,97 18,66 40,86 111,99 62,12 123,-3 153,-37 20,-24 23,-35 18,-80 -8,-82 -51,-165 -116,-227 -75,-71 -135,-105 -217,-121 -248,-51 -403,-16 -545,121 -79,76 -114,138 -129,233 -13,83 -13,793 0,883 19,131 101,238 237,310 123,64 265,83 388,52 z m -3326,-29 c 52,-27 53,-40 62,-476 5,-223 13,-501 18,-618 13,-283 21,-299 154,-342 24,-7 37,-18 37,-29 0,-23 -44,-63 -100,-92 -54,-27 -179,-38 -233,-20 -45,15 -102,78 -117,128 -17,58 -29,419 -32,936 l -3,468 33,30 c 28,25 40,29 93,29 33,0 72,-6 88,-14 z m 743,-15 33,-29 0,-737 0,-737 -33,-29 c -27,-24 -41,-29 -86,-29 -73,0 -110,15 -142,58 -15,20 -47,55 -72,77 -45,41 -45,41 -29,71 9,17 23,37 32,44 9,7 24,27 33,44 15,28 18,93 22,626 5,553 6,598 23,623 24,36 48,46 124,46 56,1 66,-2 95,-28 z"
       id="path6"
       inkscape:connector-curvature="0"
       style="fill:#ffffff;fill-opacity:1" />
    <path
       d="m 8672,3031 c -54,-19 -112,-64 -112,-88 0,-7 -4,-13 -10,-13 -14,0 -13,-790 0,-895 28,-214 48,-277 91,-290 12,-4 65,-7 119,-7 155,0 204,31 246,152 18,51 19,90 19,515 -1,497 -1,499 -56,577 -47,66 -183,88 -297,49 z"
       id="path8"
       inkscape:connector-curvature="0"
       style="fill:#ffffff;fill-opacity:1" />
    <path
       d="m 10049,3077 c -88,-47 -129,-145 -129,-312 l 0,-114 33,-34 c 45,-48 96,-60 237,-55 99,3 121,7 158,27 l 42,25 0,183 0,184 -36,39 c -54,58 -106,80 -191,80 -54,0 -80,-5 -114,-23 z"
       id="path10"
       inkscape:connector-curvature="0"
       style="fill:#ffffff;fill-opacity:1" />
    <path
       d="m 397,4059 c -56,-9 -75,-22 -94,-66 -18,-45 -9,-81 77,-298 204,-513 392,-999 407,-1051 14,-50 17,-122 20,-484 2,-234 6,-440 9,-457 2,-18 16,-45 30,-60 l 26,-28 198,0 c 186,0 200,1 227,21 56,42 56,43 65,514 4,239 12,461 18,492 6,32 47,146 92,255 108,267 330,831 367,938 17,48 31,100 31,116 0,41 -23,83 -55,97 -33,15 -384,16 -437,2 -61,-17 -82,-56 -164,-308 -77,-234 -100,-282 -134,-282 -34,0 -56,46 -135,281 -84,248 -106,289 -168,308 -40,12 -316,19 -380,10 z"
       id="path12"
       inkscape:connector-curvature="0"
       style="fill:#ffffff;fill-opacity:1" />
    <path
       d="m 2215,3439 c -143,-14 -236,-58 -336,-159 -103,-102 -131,-187 -150,-449 -16,-222 -7,-730 15,-826 47,-207 189,-360 391,-421 83,-26 350,-26 445,-1 173,46 321,172 381,325 23,56 23,65 27,529 2,295 0,506 -7,560 -26,217 -182,384 -396,427 -92,18 -270,26 -370,15 z m 193,-445 c 41,-29 53,-70 64,-218 12,-172 5,-623 -12,-688 -15,-59 -49,-92 -95,-92 -50,0 -82,34 -96,103 -15,71 -6,777 11,833 19,66 80,96 128,62 z"
       id="path14"
       inkscape:connector-curvature="0"
       style="fill:#ffffff;fill-opacity:1" />
    <path
       d="m 3345,3401 c -11,-5 -29,-19 -40,-31 -20,-22 -20,-36 -20,-744 0,-764 4,-850 47,-949 44,-101 141,-151 294,-150 76,1 106,6 180,33 154,55 159,56 196,37 18,-9 49,-26 68,-37 31,-18 53,-20 205,-20 152,0 173,2 203,20 18,11 37,32 42,46 13,34 13,1704 0,1738 -5,14 -24,35 -42,46 -30,18 -51,20 -201,20 -180,0 -213,-7 -239,-53 -10,-17 -14,-162 -18,-632 -5,-607 -5,-610 -27,-652 -47,-87 -136,-114 -169,-51 -14,28 -18,108 -26,652 -7,440 -13,632 -22,660 -21,67 -51,76 -246,75 -91,0 -174,-4 -185,-8 z"
       id="path16"
       inkscape:connector-curvature="0"
       style="fill:#ffffff;fill-opacity:1" />
  </g>
</svg>
