<?xml version="1.0" encoding="UTF-8" standalone="no"?>
<!-- Created with Inkscape (http://www.inkscape.org/) -->

<svg
   xmlns:dc="http://purl.org/dc/elements/1.1/"
   xmlns:cc="http://creativecommons.org/ns#"
   xmlns:rdf="http://www.w3.org/1999/02/22-rdf-syntax-ns#"
   xmlns:svg="http://www.w3.org/2000/svg"
   xmlns="http://www.w3.org/2000/svg"
   xmlns:sodipodi="http://sodipodi.sourceforge.net/DTD/sodipodi-0.dtd"
   xmlns:inkscape="http://www.inkscape.org/namespaces/inkscape"
   width="650"
   height="290"
   viewBox="0 0 649.99964 289.99998"
   id="svg2"
   version="1.1"
   inkscape:version="0.91 r13725"
   sodipodi:docname="01.svg">
  <defs
     id="defs4" />
  <sodipodi:namedview
     id="base"
     pagecolor="#ffffff"
     bordercolor="#666666"
     borderopacity="1.0"
     inkscape:pageopacity="0.0"
     inkscape:pageshadow="2"
     inkscape:zoom="0.35"
     inkscape:cx="747.23719"
     inkscape:cy="505.12936"
     inkscape:document-units="px"
     inkscape:current-layer="layer1"
     showgrid="false"
     inkscape:window-width="1366"
     inkscape:window-height="705"
     inkscape:window-x="-8"
     inkscape:window-y="-8"
     inkscape:window-maximized="1"
     showborder="true"
     width="650mm"
     units="px" />
  <metadata
     id="metadata7">
    <rdf:RDF>
      <cc:Work
         rdf:about="">
        <dc:format>image/svg+xml</dc:format>
        <dc:type
           rdf:resource="http://purl.org/dc/dcmitype/StillImage" />
        <dc:title></dc:title>
      </cc:Work>
    </rdf:RDF>
  </metadata>
  <g
     inkscape:label="Layer 1"
     inkscape:groupmode="layer"
     id="layer1"
     transform="translate(0,-762.36227)">
    <path
       style="fill:#000000"
       d="M 32.053716,914.84203 C 16.050971,839.20584 1.6532363,773.9559 0.05873808,769.84202 -2.2556385,763.87073 62.996384,762.36223 323.58856,762.36223 c 257.1674,0 326.42521,1.56968 326.41127,7.39793 -0.025,8.91659 -59.64208,278.53984 -62.1391,281.01094 -0.96327,0.9548 -14.94452,-4.2616 -31.06949,-11.591 -40.72846,-18.5085 -144.20607,-18.6831 -194.31323,-0.3273 -33.48347,12.2668 -33.48347,12.2668 -68.74456,-0.3616 -51.813,-18.5564 -160.34984,-18.21 -201.904435,0.6436 -16.034906,7.2754 -29.497497,13.2274 -29.916907,13.2274 -0.419367,0 -13.855663,-61.88414 -29.858392,-137.52017 z m 241.827174,15.77789 c 6.32039,-5.66307 11.49168,-12.54694 11.49168,-15.29752 0,-6.67369 -30.61859,-6.23499 -41.52249,0.59503 -5.28249,3.30884 -12.83826,3.19256 -19.42784,-0.29906 -20.22483,-10.71628 -10.82948,-17.13375 25.08352,-17.13375 31.53861,0 35.86681,-1.38854 35.86681,-11.5067 0,-6.32885 -6.4921,-18.97922 -14.42696,-28.11225 -20.84701,-23.99518 -63.87712,-23.99518 -84.72426,0 -23.65933,27.23213 -14.92474,67.63794 17.59616,81.40016 18.26092,7.72768 56.55752,2.45518 70.06338,-9.64591 z m -56.31312,-59.0585 c 4.06744,-10.49433 20.7499,-9.28744 24.46858,1.77017 1.55679,4.62927 -3.22129,7.39793 -12.76702,7.39793 -11.31897,0 -14.3382,-2.36549 -11.70156,-9.1681 z m 351.03975,56.31596 c 19.27072,-18.09714 8.75044,-39.93728 -23.32952,-48.43198 -14.7245,-3.89914 -26.77171,-9.53301 -26.77171,-12.51991 0,-5.43155 23.09685,-2.60629 43.94512,5.37553 18.62262,7.12977 9.28187,-16.89832 -10.15454,-26.1213 -36.42841,-17.28602 -85.70195,10.78655 -69.98066,39.87027 3.57742,6.61787 17.21867,14.88899 30.31385,18.38008 24.95016,6.65153 32.35644,17.72804 11.8539,17.72804 -6.57552,0 -11.95546,-2.66339 -11.95546,-5.91834 0,-3.25521 -8.07006,-5.91842 -17.93342,-5.91842 -20.3694,0 -22.65167,5.85996 -7.47228,19.18604 20.53333,18.02612 61.42446,17.20809 81.48472,-1.63001 z m -396.81295,0.19912 c 0,-10.08319 -3.98516,-11.83673 -26.89996,-11.83673 -26.90012,0 -26.90012,0 -26.90012,-35.51025 0,-35.51012 0,-35.51012 -20.922202,-35.51012 -20.922301,0 -20.922301,0 -20.922301,47.34683 0,47.34696 0,47.34696 47.822313,47.34696 43.83711,0 47.82227,-0.98642 47.82227,-11.83669 z m 196.86831,-16.27549 c 7.6666,-15.46177 17.65368,-36.76798 22.19364,-47.347 8.0438,-18.74394 7.87391,-19.23461 -6.65571,-19.23461 -11.71266,0 -17.91238,5.84877 -28.90987,27.27313 -13.99991,27.27328 -13.99991,27.27328 -24.5202,0 -9.93984,-25.76827 -11.76661,-27.27313 -33.10487,-27.27313 -22.58463,0 -22.58463,0 0.37,47.34683 20.66634,42.62679 24.63619,47.34696 39.82125,47.34696 14.17977,0 19.08689,-4.47799 30.80578,-28.11218 z M 440.795,892.56623 c 0,-47.34683 0,-47.34683 -17.93344,-47.34683 -17.93332,0 -17.93332,0 -17.93332,47.34683 0,47.34696 0,47.34696 17.93332,47.34696 17.93344,0 17.93344,0 17.93344,-47.34696 z m 35.86663,-51.03083 c 0,-10.12562 -3.35224,-14.07119 -11.95552,-14.07119 -7.97039,0 -11.95558,3.94557 -11.95558,11.83673 0,6.51024 2.60568,11.8368 5.79026,11.8368 3.18458,0 4.02591,4.66068 1.86964,10.3571 -3.43327,9.06983 -2.66695,9.34747 6.16538,2.23435 5.54726,-4.46739 10.08582,-14.45455 10.08582,-22.19379 z"
       id="path4147"
       inkscape:connector-curvature="0"
       sodipodi:nodetypes="ssscsssssssssssssssssssssssssssssssssssssssscsssssssccssssssssssss" />
  </g>
</svg>
