<?xml version="1.0" encoding="UTF-8" standalone="no"?>
<!-- Created with Inkscape (http://www.inkscape.org/) -->

<svg
   xmlns:dc="http://purl.org/dc/elements/1.1/"
   xmlns:cc="http://creativecommons.org/ns#"
   xmlns:rdf="http://www.w3.org/1999/02/22-rdf-syntax-ns#"
   xmlns:svg="http://www.w3.org/2000/svg"
   xmlns="http://www.w3.org/2000/svg"
   xmlns:sodipodi="http://sodipodi.sourceforge.net/DTD/sodipodi-0.dtd"
   xmlns:inkscape="http://www.inkscape.org/namespaces/inkscape"
   width="660"
   height="100"
   viewBox="0 0 659.99996 100"
   id="svg2"
   version="1.1"
   inkscape:version="0.91 r13725"
   sodipodi:docname="02.svg">
  <defs
     id="defs4" />
  <sodipodi:namedview
     id="base"
     pagecolor="#ffffff"
     bordercolor="#666666"
     borderopacity="1.0"
     inkscape:pageopacity="0.0"
     inkscape:pageshadow="2"
     inkscape:zoom="0.35"
     inkscape:cx="-476.42857"
     inkscape:cy="505.12936"
     inkscape:document-units="px"
     inkscape:current-layer="layer1"
     showgrid="false"
     inkscape:window-width="1366"
     inkscape:window-height="705"
     inkscape:window-x="-8"
     inkscape:window-y="-8"
     inkscape:window-maximized="1"
     units="px" />
  <metadata
     id="metadata7">
    <rdf:RDF>
      <cc:Work
         rdf:about="">
        <dc:format>image/svg+xml</dc:format>
        <dc:type
           rdf:resource="http://purl.org/dc/dcmitype/StillImage" />
        <dc:title></dc:title>
      </cc:Work>
    </rdf:RDF>
  </metadata>
  <g
     inkscape:label="Layer 1"
     inkscape:groupmode="layer"
     id="layer1"
     transform="translate(0,-952.36214)">
    <path
       style="fill:#000000"
       d="m 134.00053,1049.529 c 0,-5.0883 40.80548,-75.52015 43.75603,-75.52454 6.23184,-0.01 8.7053,14.8525 3.91577,23.52794 -4.44235,8.0466 -3.24201,8.9424 11.9815,8.9424 9.30515,0 16.91845,-1.1131 16.91845,-2.4738 0,-1.3606 -5.42023,-12.84283 -12.04496,-25.51605 -11.46755,-21.93764 -11.59792,-23.0422 -2.71949,-23.0422 6.85517,0 15.7506,11.51972 33.58076,43.48759 13.34041,23.91816 24.25531,44.79496 24.25531,46.39286 0,1.5979 -4.25186,2.9053 -9.44858,2.9053 -5.65805,0 -12.42704,-5.5836 -16.87297,-13.9179 -6.87116,-12.8808 -9.36744,-13.9178 -33.50014,-13.9178 -23.87632,0 -26.67544,1.1241 -33.18558,13.3281 -6.0036,11.2545 -26.6361,23.4995 -26.6361,15.8081 z m 301.50372,-1.8732 c -13.24157,-5.1187 -33.50259,-22.0953 -33.50259,-28.0718 0,-7.3698 17.73624,-3.7484 26.23684,5.3573 11.54157,12.3631 36.65367,16.4497 53.16376,8.6518 20.13119,-9.5083 19.61002,-17.029 -1.29598,-18.7022 -12.78916,-1.0237 -18.6754,-3.8718 -19.79048,-9.5758 -1.37037,-7.00986 2.38278,-8.11877 27.47818,-8.11877 l 29.0653,0 0,14.22287 c 0,7.8225 -2.10812,18.0413 -4.68471,22.7084 -8.96612,16.2407 -50.63347,23.5927 -76.67032,13.5282 z m 131.60525,-2.0076 c -20.83533,-10.394 -30.87976,-25.1139 -31.00085,-45.4307 -0.28714,-48.1403 77.26497,-65.80136 112.20169,-25.55198 20.76502,23.92263 13.18719,54.19578 -17.34585,69.29578 -22.34415,11.0503 -23.17626,11.0369 -23.17626,-0.3721 0,-5.1033 2.85498,-9.2786 6.34441,-9.2786 10.31397,0 27.15574,-20.5439 27.15574,-33.1251 0,-17.43523 -19.85764,-33.09015 -41.97353,-33.09015 -23.66268,0 -38.49726,7.82341 -42.23912,22.27597 -4.93706,19.06888 1.92176,35.12518 17.42835,40.79918 8.37212,3.0634 14.14122,8.5447 14.14122,13.4358 0,10.083 -3.11082,10.2336 -21.5358,1.0419 z M -3.0517578e-5,1001.8356 c 0,-43.35053 0.629731017578,-46.39285 9.602845917578,-46.39285 6.6849996,0 16.3587136,10.21731 31.8368896,33.6259 12.228731,18.49425 22.444113,36.53675 22.700863,40.09445 1.077315,14.9281 -10.203427,8.0644 -25.854728,-15.7313 -9.212531,-14.00637 -17.826858,-25.4813 -19.142935,-25.49983 -1.316078,-0.0185 -1.670716,13.54063 -0.788078,30.13133 1.488588,27.981 0.882202,30.1652 -8.3750392,30.1652 -9.45062002,0 -9.979818317578,-2.4602 -9.979818317578,-46.3929 z M 96.580377,1018.0731 c 2.1036,-32.02536 -0.689535,-37.44355 -9.566406,-18.55713 -6.008559,12.78383 -12.863117,14.98553 -16.674981,5.35583 -3.750416,-9.47433 24.955985,-49.42905 35.51348,-49.42905 8.216,0 9.00512,4.06543 9.00512,46.39285 0,44.1513 -0.48943,46.3929 -10.12898,46.3929 -9.479118,0 -10.001898,-1.9348 -8.148233,-30.1554 z m 176.206453,-16.2375 c 0,-41.29889 0.93054,-46.39285 8.47481,-46.39285 9.46494,0 92.02561,78.12235 92.02561,87.07845 0,12.349 -13.64714,4.3142 -45.46448,-26.7677 -18.28389,-17.86127 -34.37798,-32.47973 -35.76465,-32.48548 -1.38667,-0.006 -1.8061,14.608 -0.93207,32.47508 1.48285,30.3126 0.92268,32.4854 -8.37504,32.4854 -9.43081,0 -9.96418,-2.4834 -9.96418,-46.3929 z m 92.08015,4.7022 c -8.76348,-13.60311 -7.85239,-51.09505 1.24167,-51.09505 5.64471,0 7.1786,6.44346 7.1786,30.15536 0,16.58539 -0.55875,30.15539 -1.24167,30.15539 -0.68292,0 -3.91329,-4.1471 -7.1786,-9.2157 z m 32.34894,-14.44468 c 0,-2.80678 7.05063,-11.93808 15.66803,-20.29179 19.09634,-18.51198 45.58243,-24.10433 72.96856,-15.40683 19.70301,6.25744 27.54444,21.38934 9.47097,18.27654 -44.77153,-7.711 -54.81284,-6.52322 -68.95923,8.15713 -13.70068,14.21781 -29.14833,19.12793 -29.14833,9.26495 z"
       id="path4160"
       inkscape:connector-curvature="0" />
  </g>
</svg>
