<?xml version="1.0" encoding="UTF-8" standalone="no"?>
<!-- Created with Inkscape (http://www.inkscape.org/) -->

<svg
   xmlns:dc="http://purl.org/dc/elements/1.1/"
   xmlns:cc="http://creativecommons.org/ns#"
   xmlns:rdf="http://www.w3.org/1999/02/22-rdf-syntax-ns#"
   xmlns:svg="http://www.w3.org/2000/svg"
   xmlns="http://www.w3.org/2000/svg"
   xmlns:sodipodi="http://sodipodi.sourceforge.net/DTD/sodipodi-0.dtd"
   xmlns:inkscape="http://www.inkscape.org/namespaces/inkscape"
   width="640"
   height="100"
   viewBox="0 0 639.99999 100"
   id="svg2"
   version="1.1"
   inkscape:version="0.91 r13725"
   sodipodi:docname="03.svg">
  <defs
     id="defs4" />
  <sodipodi:namedview
     id="base"
     pagecolor="#ffffff"
     bordercolor="#666666"
     borderopacity="1.0"
     inkscape:pageopacity="0.0"
     inkscape:pageshadow="2"
     inkscape:zoom="0.35"
     inkscape:cx="-50.714286"
     inkscape:cy="230.64021"
     inkscape:document-units="px"
     inkscape:current-layer="layer1"
     showgrid="false"
     inkscape:window-width="724"
     inkscape:window-height="696"
     inkscape:window-x="-7"
     inkscape:window-y="0"
     inkscape:window-maximized="0"
     units="px" />
  <metadata
     id="metadata7">
    <rdf:RDF>
      <cc:Work
         rdf:about="">
        <dc:format>image/svg+xml</dc:format>
        <dc:type
           rdf:resource="http://purl.org/dc/dcmitype/StillImage" />
        <dc:title></dc:title>
      </cc:Work>
    </rdf:RDF>
  </metadata>
  <g
     inkscape:label="Layer 1"
     inkscape:groupmode="layer"
     id="layer1"
     transform="translate(0,-952.36214)">
    <path
       style="fill:#000000"
       d="m 19.172882,1042.7623 c -28.4483752,-23.0543 -24.5883039,-66.88194 7.261951,-82.45297 8.960576,-4.38067 21.178365,-7.95684 27.150641,-7.94704 14.531144,0.0238 40.907778,17.02862 40.907778,26.37289 0,5.21008 -3.325163,3.49707 -10.958248,-5.64529 -21.521109,-25.77645 -59.53703,-13.69645 -65.840787,20.92167 -6.351273,34.87904 19.08369,61.34714 48.554886,50.52714 9.624975,-3.5337 12.054827,-7.5235 12.019181,-19.7351 -0.03339,-11.4516 2.003917,-15.3061 8.090141,-15.3061 5.941128,0 8.134827,3.82 8.134827,14.1659 0,10.8698 -3.173549,15.8567 -13.639235,21.4324 -19.348409,10.308 -47.39087,9.2471 -61.681135,-2.3335 z m 165.307168,5.0681 c -16.20348,-6.7666 -19.79431,-15.799 -21.39747,-53.82296 -1.37462,-32.60324 -0.61034,-36.92108 6.53342,-36.9113 7.01933,0.009 8.09014,4.97709 8.09014,37.52991 0,43.47005 4.57767,50.37555 33.39398,50.37555 26.38301,0 32.23283,-10.2553 30.44657,-53.37553 -0.78699,-18.99756 0.12936,-34.53603 2.03632,-34.52993 1.90696,0.006 3.46721,17.00143 3.46721,37.7674 0,35.11596 -0.85182,38.44666 -12.18079,47.62746 -12.47258,10.1077 -33.60803,12.3472 -50.38938,5.3394 z m 141.85468,-7.5039 c -17.56893,-15.2303 -21.80948,-34.1925 -12.68042,-56.70218 7.29886,-17.99694 28.56269,-31.29817 49.97661,-31.26203 14.96512,0.0253 40.61846,17.31778 40.4964,27.298 -0.0902,7.37324 -1.08312,7.15797 -8.09014,-1.75394 -9.22176,-11.72875 -24.82374,-20.79912 -35.77667,-20.79912 -4.17666,0 -13.67488,6.26485 -21.10714,13.92188 -10.56497,10.88448 -13.51321,18.20549 -13.51321,33.55569 0,39.3153 39.99725,57.6618 66.40221,30.4583 9.24319,-9.5227 12.18775,-10.7029 12.18775,-4.885 0,10.677 -23.69641,22.2041 -45.64512,22.2041 -12.89881,0 -22.49984,-3.583 -32.25027,-12.0357 z m 157.43599,0.2221 c -35.7666,-31.0057 -11.71503,-88.26859 37.0401,-88.18631 14.27905,0.0241 40.5992,17.12144 40.5992,26.37289 0,5.40584 -2.88402,4.10328 -10.40162,-4.69783 -5.72088,-6.69767 -17.0793,-13.49762 -25.24096,-15.11103 -12.40773,-2.45278 -17.14218,-0.56093 -28.89336,11.54561 -15.86681,16.34668 -18.31881,35.76467 -7.29061,57.73587 11.88891,23.6859 42.2273,27.091 60.48995,6.7893 8.50029,-9.4493 11.3366,-10.6716 11.3366,-4.885 0,10.7174 -23.65877,22.2501 -45.64509,22.2501 -12.80776,0 -22.49119,-3.5755 -31.99421,-11.8136 z m 148.49558,8.1145 c -3.3103,-2.1693 -6.01116,-20.6956 -6.93441,-47.5655 -1.35161,-39.33803 -0.65304,-44.01108 6.57794,-44.0013 7.16485,0.009 8.09014,5.45823 8.09014,47.6385 0,26.195 -0.52008,47.5945 -1.15574,47.5545 -0.63565,-0.04 -3.59572,-1.6719 -6.57793,-3.6262 z"
       id="path4179"
       inkscape:connector-curvature="0" />
  </g>
</svg>
