<?xml version="1.0" encoding="UTF-8" standalone="no"?>
<!-- Created with Inkscape (http://www.inkscape.org/) -->

<svg
   xmlns:dc="http://purl.org/dc/elements/1.1/"
   xmlns:cc="http://creativecommons.org/ns#"
   xmlns:rdf="http://www.w3.org/1999/02/22-rdf-syntax-ns#"
   xmlns:svg="http://www.w3.org/2000/svg"
   xmlns="http://www.w3.org/2000/svg"
   xmlns:sodipodi="http://sodipodi.sourceforge.net/DTD/sodipodi-0.dtd"
   xmlns:inkscape="http://www.inkscape.org/namespaces/inkscape"
   width="620"
   height="400"
   viewBox="0 0 619.99997 400.00002"
   id="svg2"
   version="1.1"
   inkscape:version="0.91 r13725"
   sodipodi:docname="04.svg">
  <defs
     id="defs4" />
  <sodipodi:namedview
     id="base"
     pagecolor="#ffffff"
     bordercolor="#666666"
     borderopacity="1.0"
     inkscape:pageopacity="0.0"
     inkscape:pageshadow="2"
     inkscape:zoom="0.35"
     inkscape:cx="-473.57143"
     inkscape:cy="505.12936"
     inkscape:document-units="px"
     inkscape:current-layer="layer1"
     showgrid="false"
     inkscape:window-width="1366"
     inkscape:window-height="705"
     inkscape:window-x="-8"
     inkscape:window-y="-8"
     inkscape:window-maximized="1"
     units="px" />
  <metadata
     id="metadata7">
    <rdf:RDF>
      <cc:Work
         rdf:about="">
        <dc:format>image/svg+xml</dc:format>
        <dc:type
           rdf:resource="http://purl.org/dc/dcmitype/StillImage" />
        <dc:title></dc:title>
      </cc:Work>
    </rdf:RDF>
  </metadata>
  <g
     inkscape:label="Layer 1"
     inkscape:groupmode="layer"
     id="layer1"
     transform="translate(0,-652.36213)">
    <path
       style="fill:#000000"
       d="m 3.4845348,1042.0836 c -1.9165107,-5.0291 -3.484565317578,-16.5221 -3.484565317578,-25.5402 0,-29.35275 4.947551417578,-34.6839 32.188268517578,-34.6839 13.870526,0 25.219134,2.60129 25.219134,5.78065 0,3.17936 -9.041663,5.78065 -20.092589,5.78065 -19.614197,0 -20.092592,0.55054 -20.092592,23.1226 0,22.5721 0.478393,23.1226 20.092592,23.1226 11.050926,0 20.092589,2.6014 20.092589,5.7807 0,10.0688 -49.9923354,6.9508 -53.9228372,-3.3631 z m 80.7129592,5.2899 c -2.104931,-2.1195 -3.827153,-17.7273 -3.827153,-34.6839 l 0,-30.8301 28.703699,0 28.70371,0 0,34.6839 0,34.6839 -24.87654,0 c -13.682105,0 -26.598775,-1.7341 -28.703716,-3.8538 z m 42.098766,-30.8301 c 0,-21.83801 -0.95679,-23.1226 -17.22222,-23.1226 -15.691352,0 -17.22222,1.71278 -17.22222,19.2688 0,22.8422 3.225847,26.9764 21.04939,26.9764 11.80041,0 13.39505,-2.7527 13.39505,-23.1226 z m 40.18519,0 0,-34.6839 25.83333,0 25.83334,0 0,34.6839 c 0,19.2688 -2.55144,34.6839 -5.74074,34.6839 -3.15741,0 -5.74074,-13.0064 -5.74074,-28.9032 0,-26.97642 -0.95679,-28.9033 -14.35186,-28.9033 -13.39506,0 -14.35185,1.92688 -14.35185,28.9033 0,15.8968 -2.58333,28.9032 -5.74074,28.9032 -3.1893,0 -5.74074,-15.4151 -5.74074,-34.6839 z m 86.65377,10.1162 c -3.8585,-13.5123 -8.31649,-29.12008 -9.90665,-34.68396 -1.80592,-6.31882 0.23055,-10.11614 5.42525,-10.11614 5.09264,0 11.08281,10.64394 15.45277,27.4581 l 7.13633,27.4581 7.6381,-17.342 c 4.20097,-9.5381 7.75464,-21.89418 7.89705,-27.45806 0.14973,-5.84873 4.68429,-10.11614 10.74948,-10.11614 10.07105,0 10.03895,1.38696 -0.80269,34.6839 -9.26253,28.4472 -13.56623,34.6839 -23.93372,34.6839 -9.94351,0 -14.13727,-5.2417 -19.65592,-24.5677 z m 76.415,16.5581 c -1.6788,-4.4053 -2.24356,-19.3628 -1.25502,-33.2388 1.79679,-25.22109 1.80509,-25.22964 26.19551,-27.00662 28.29474,-2.06142 33.70976,8.81197 5.74074,11.52744 -10.26157,0.99628 -18.65741,4.4127 -18.65741,7.59208 0,3.1794 8.39584,6.5957 18.65741,7.5921 10.26157,0.9963 18.65741,4.0831 18.65741,6.8595 0,2.7765 -8.39584,5.8633 -18.65741,6.8596 -10.26157,0.9963 -18.65741,4.4127 -18.65741,7.592 0,3.1794 8.39584,6.5958 18.65741,7.5922 26.67268,2.5896 23.10594,12.6401 -4.48573,12.6401 -14.42663,0 -24.29275,-3.0166 -26.1955,-8.0096 z m 77.11705,-26.6848 -1.94508,-34.69447 26.88166,0.0104 c 21.66202,0.009 27.57587,2.21301 30.45692,11.35349 1.96639,6.23875 0.7057,16.74218 -2.80154,23.34108 -3.50725,6.5989 -4.76794,17.1023 -2.80155,23.341 5.23685,16.6145 -7.71916,14.0103 -15.46522,-3.1087 -3.59653,-7.9484 -9.99948,-14.4516 -14.22879,-14.4516 -4.37511,0 -7.68963,6.2291 -7.68963,14.4516 0,30.112 -10.54862,12.9008 -12.40677,-20.2428 z m 41.11048,-14.4411 c 0,-5.39529 -5.42181,-8.671 -14.35185,-8.671 -8.93005,0 -14.35186,3.27571 -14.35186,8.671 0,5.3953 5.42181,8.671 14.35186,8.671 8.93004,0 14.35185,-3.2757 14.35185,-8.671 z m 40.18518,43.6873 c 0,-3.3622 9.25694,-6.1131 20.57099,-6.1131 24.98217,0 24.27304,-12.9601 -0.952,-17.3987 -14.11766,-2.4841 -16.74861,-5.6623 -16.74861,-20.2323 0,-16.2029 1.52763,-17.39647 24.39814,-19.06272 14.43551,-1.0517 24.39814,0.71864 24.39814,4.33549 0,3.36217 -9.25693,6.11303 -20.57098,6.11303 -24.98217,0 -24.27304,12.9601 0.952,17.3988 14.11766,2.4841 16.74861,5.6622 16.74861,20.2322 0,16.203 -1.52763,17.3965 -24.39814,19.0628 -14.43551,1.0517 -24.39815,-0.7187 -24.39815,-4.3355 z m 82.69839,-2.5614 c -1.6788,-4.4053 -2.24355,-19.3628 -1.25501,-33.2388 1.79679,-25.22109 1.80509,-25.22964 26.19551,-27.00662 28.29473,-2.06142 33.70974,8.81197 5.74074,11.52744 -10.26157,0.99628 -18.65741,4.4127 -18.65741,7.59208 0,3.1794 8.39584,6.5957 18.65741,7.5921 10.26157,0.9963 18.65741,4.0831 18.65741,6.8595 0,2.7765 -8.39584,5.8633 -18.65741,6.8596 -10.26157,0.9963 -18.65741,4.4127 -18.65741,7.592 0,3.1794 8.39584,6.5958 18.65741,7.5922 26.67268,2.5896 23.10597,12.6401 -4.4857,12.6401 -14.42665,0 -24.29279,-3.0166 -26.19554,-8.0096 z M 285.41526,929.4288 c -44.74245,-10.86552 -81.97288,-41.76192 -98.55027,-81.78385 -12.13183,-29.28926 -11.18177,-82.72721 1.98999,-111.93042 20.97893,-46.51258 75.11922,-83.35232 122.4959,-83.35232 52.50224,0 110.24776,36.74181 131.38379,83.59572 12.07568,26.76912 13.80514,69.65719 4.12136,102.2035 -18.7321,62.95687 -96.64421,107.00295 -161.44077,91.26737 z m 75.00058,-25.90111 c 68.53393,-28.78337 94.90051,-112.12778 55.0503,-174.01324 -23.06926,-35.82546 -48.98951,-50.50907 -93.35677,-52.88587 -31.53755,-1.6895 -42.30372,0.31381 -63.77606,11.86708 -31.27877,16.82965 -57.53454,56.45444 -61.62584,93.00473 -9.71916,86.82761 82.98612,155.92962 163.70837,122.0273 z m -96.34179,-39.26097 c 0,-0.9578 4.26593,-14.34833 9.47986,-29.75675 10.45275,-30.89045 11.14999,-29.44209 -27.01372,-56.11533 -13.94816,-9.74859 -13.82726,-9.81493 18.43853,-10.11615 l 32.47874,-0.3032 7.28311,-28.61472 c 4.0057,-15.7381 9.05672,-27.51094 11.2245,-26.16186 2.16778,1.34907 7.21486,14.22569 11.21571,28.61472 l 7.2743,26.16186 31.95894,0 31.95894,0 -24.0939,17.84205 c -26.5873,19.68846 -28.06798,24.97775 -15.4828,55.30775 4.73611,11.41392 8.61111,21.89718 8.61111,23.29614 0,1.39895 -11.66671,-5.89311 -25.92603,-16.20457 l -25.92605,-18.74813 -25.74062,18.26982 c -14.15735,10.04839 -25.74062,17.48617 -25.74062,16.52837 z"
       id="path4192"
       inkscape:connector-curvature="0" />
  </g>
</svg>
