<?xml version="1.0" encoding="UTF-8" standalone="no"?>
<!-- Created with Inkscape (http://www.inkscape.org/) -->

<svg
   xmlns:dc="http://purl.org/dc/elements/1.1/"
   xmlns:cc="http://creativecommons.org/ns#"
   xmlns:rdf="http://www.w3.org/1999/02/22-rdf-syntax-ns#"
   xmlns:svg="http://www.w3.org/2000/svg"
   xmlns="http://www.w3.org/2000/svg"
   xmlns:sodipodi="http://sodipodi.sourceforge.net/DTD/sodipodi-0.dtd"
   xmlns:inkscape="http://www.inkscape.org/namespaces/inkscape"
   width="670"
   height="100"
   viewBox="0 0 669.99996 100"
   id="svg2"
   version="1.1"
   inkscape:version="0.91 r13725"
   sodipodi:docname="05.svg">
  <defs
     id="defs4" />
  <sodipodi:namedview
     id="base"
     pagecolor="#ffffff"
     bordercolor="#666666"
     borderopacity="1.0"
     inkscape:pageopacity="0.0"
     inkscape:pageshadow="2"
     inkscape:zoom="0.35"
     inkscape:cx="-476.42857"
     inkscape:cy="505.12936"
     inkscape:document-units="px"
     inkscape:current-layer="layer1"
     showgrid="false"
     inkscape:window-width="1366"
     inkscape:window-height="705"
     inkscape:window-x="-8"
     inkscape:window-y="-8"
     inkscape:window-maximized="1"
     units="px" />
  <metadata
     id="metadata7">
    <rdf:RDF>
      <cc:Work
         rdf:about="">
        <dc:format>image/svg+xml</dc:format>
        <dc:type
           rdf:resource="http://purl.org/dc/dcmitype/StillImage" />
        <dc:title></dc:title>
      </cc:Work>
    </rdf:RDF>
  </metadata>
  <g
     inkscape:label="Layer 1"
     inkscape:groupmode="layer"
     id="layer1"
     transform="translate(0,-952.36214)">
    <path
       style="fill:#000000"
       d="M 24.321356,1044.8199 C 7.7887504,1035.1217 -2.8183498,1012.9839 0.66066808,995.43855 8.761609,954.58387 57.967658,938.56084 90.960627,966.03404 c 14.863303,12.37665 6.839385,13.63029 -13.211415,2.06411 -8.005367,-4.61784 -18.155354,-8.40315 -22.555534,-8.4118 -15.207145,-0.0298 -34.925139,13.14514 -41.309651,27.60197 -16.5379644,37.44788 32.4643,73.10728 66.082142,48.08848 17.707226,-13.1779 24.907481,-9.6028 8.719121,4.3292 -17.067606,14.6888 -44.347024,16.8562 -64.363934,5.1139 z m 94.782034,-3.5081 c -19.361286,-15.4135 -19.361286,-38.5154 0,-53.92895 15.6184,-12.43378 28.8957,-13.7704 43.12443,-4.34128 5.53786,3.66983 9.88008,4.59406 9.88008,2.10294 0,-2.44441 2.00045,-4.44438 4.44546,-4.44438 2.63571,0 4.38791,14.98196 4.30409,36.80157 -0.11666,30.366 -1.11439,35.5918 -5.70543,29.8832 -4.82937,-6.005 -6.68382,-6.1438 -14.04468,-1.0515 -12.71666,8.7975 -26.75322,7.1195 -42.00395,-5.0216 z m 44.11358,-5.935 c 18.35898,-17.3696 5.23901,-50.47077 -20.00459,-50.47077 -6.11252,0 -15.11459,3.7853 -20.0046,8.4118 -18.35898,17.36967 -5.23901,50.47077 20.0046,50.47077 6.11251,0 15.11457,-3.7853 20.00459,-8.4118 z m 31.11825,-31.5442 c 0,-29.44132 1.73953,-48.36787 4.44546,-48.36787 2.70595,0 4.44548,18.92655 4.44548,48.36787 0,29.4413 -1.73953,48.3678 -4.44548,48.3678 -2.70593,0 -4.44546,-18.9265 -4.44546,-48.3678 z m 37.47479,32.5957 c -20.26825,-45.02967 -24.17188,-56.43972 -18.72114,-54.72072 3.08226,0.97206 10.44134,13.44529 16.35349,27.71832 5.91216,14.273 11.9343,25.9388 13.38255,25.9239 1.44824,-0.015 7.52465,-12.3172 13.50314,-27.3384 5.97847,-15.02119 13.26977,-27.31127 16.20287,-27.31127 3.32925,0 -0.58751,13.43183 -10.42487,35.75017 -8.66677,19.6625 -17.43157,35.7501 -19.47732,35.7501 -2.04575,0 -6.91417,-7.0974 -10.81872,-15.7721 z m 51.43451,-19.978 c 0,-21.02953 1.83048,-35.75017 4.44546,-35.75017 2.61498,0 4.44547,14.72064 4.44547,35.75017 0,21.0295 -1.83049,35.7501 -4.44547,35.7501 -2.61498,0 -4.44546,-14.7206 -4.44546,-35.7501 z m 22.22733,0.2614 c 0,-30.98137 0.98808,-35.4933 7.77956,-35.52433 4.27876,-0.0196 12.82528,-1.22175 18.99227,-2.67156 7.84521,-1.84436 14.85447,0.0742 23.33868,6.38826 11.13708,8.28832 12.12599,11.42068 12.12599,38.40853 0,18.5185 -1.64385,28.423 -4.44546,26.7849 -2.44501,-1.4297 -4.44546,-13.7084 -4.44546,-27.2861 0,-26.05597 -6.83226,-37.90537 -21.85587,-37.90537 -15.08904,0 -22.59878,13.73715 -22.59878,41.33867 0,14.4999 -1.96206,25.9557 -4.44547,25.9557 -2.61242,0 -4.44546,-14.6335 -4.44546,-35.4887 z m 102.24569,-12.8791 c 0,-29.44132 1.73953,-48.36787 4.44547,-48.36787 2.4645,0 4.54972,11.7138 4.67944,26.28687 l 0.23397,26.2869 14.21378,-16.71212 c 21.69146,-25.50406 38.7797,-41.3599 41.64902,-38.64523 1.42242,1.34576 -5.66899,11.77538 -15.75864,23.17693 -10.0896,11.40154 -18.34479,22.18809 -18.34479,23.9701 0,1.78202 8.1822,13.49322 18.18267,26.02502 10.00048,12.5317 16.83186,24.0596 15.18095,25.6176 -2.98264,2.8146 -13.10265,-6.8777 -32.25275,-30.8899 -9.7232,-12.1918 -10.1892,-12.3142 -16.6705,-4.3782 -3.66723,4.4903 -6.66769,14.4268 -6.66769,22.0809 0,7.6543 -2.00046,13.9168 -4.44546,13.9168 -2.70594,0 -4.44547,-18.9265 -4.44547,-48.3678 z m 74.0911,45.5639 c -1.63002,-1.5422 -2.96366,-23.3077 -2.96366,-48.3679 0,-36.76454 1.23108,-45.56387 6.37458,-45.56387 5.19647,0 6.22347,8.48578 5.55682,45.91457 -0.78768,44.2274 -2.61753,54.0252 -8.96774,48.0172 z m 27.81264,-9.4903 c -16.25315,-15.3772 -17.10125,-33.1904 -2.35257,-49.41268 15.16664,-16.68206 43.56799,-16.68206 58.73463,0 5.85304,6.43785 10.64186,15.30838 10.64186,19.71238 0,7.1122 -4.02194,8.1437 -35.98487,9.2287 l -35.98494,1.2216 9.6348,11.5662 c 11.81089,14.1786 28.84471,15.1408 43.13776,2.4368 5.64921,-5.0211 11.77952,-7.6991 13.62291,-5.951 1.84341,1.7481 -2.26118,7.749 -9.12129,13.3352 -17.24787,14.0454 -36.03512,13.278 -52.32829,-2.1372 z m 58.133,-32.6481 c 0,-6.7068 -20.07546,-22.35207 -28.6813,-22.35207 -11.9671,0 -29.10975,11.28624 -29.10975,19.16507 0,4.6672 6.67882,6.0703 28.89553,6.0703 15.89254,0 28.89552,-1.2975 28.89552,-2.8833 z m 17.78186,9.4404 c 0,-21.19499 1.82806,-35.99837 4.44547,-35.99837 2.59041,0 4.44546,13.93692 4.44546,33.39897 0,18.3694 -2.00047,34.5687 -4.44546,35.9984 -2.83141,1.6556 -4.44547,-10.4711 -4.44547,-33.399 z m 22.22732,0.2614 c 0,-31.21775 0.98378,-35.74148 7.77957,-35.77253 4.27876,-0.0196 13.16137,-1.28253 19.73915,-2.80664 9.29561,-2.15384 14.49431,-0.373 23.33869,7.99477 9.91125,9.37711 11.3791,14.3491 11.3791,38.5436 0,17.4475 -1.65322,26.8111 -4.44546,25.1784 -2.44501,-1.4297 -4.44547,-13.5503 -4.44547,-26.9347 0,-18.2343 -2.03816,-26.08047 -8.1296,-31.29606 -20.13689,-17.24157 -36.32505,-3.4512 -36.32505,30.94466 0,13.5777 -2.00046,25.8564 -4.44546,27.2861 -2.83043,1.655 -4.44547,-10.384 -4.44547,-33.1376 z M 283.24452,961.77358 c 0,-3.46987 2.00046,-6.30885 4.44546,-6.30885 2.44501,0 4.44547,2.83898 4.44547,6.30885 0,3.46986 -2.00046,6.30885 -4.44547,6.30885 -2.445,0 -4.44546,-2.83899 -4.44546,-6.30885 z m 302.29162,0 c 0,-3.46987 2.00046,-6.30885 4.44547,-6.30885 2.44499,0 4.44546,2.83898 4.44546,6.30885 0,3.46986 -2.00047,6.30885 -4.44546,6.30885 -2.44501,0 -4.44547,-2.83899 -4.44547,-6.30885 z"
       id="path4205"
       inkscape:connector-curvature="0" />
  </g>
</svg>
