<?xml version="1.0" encoding="UTF-8" standalone="no"?>
<!-- Created with Inkscape (http://www.inkscape.org/) -->

<svg
   xmlns:dc="http://purl.org/dc/elements/1.1/"
   xmlns:cc="http://creativecommons.org/ns#"
   xmlns:rdf="http://www.w3.org/1999/02/22-rdf-syntax-ns#"
   xmlns:svg="http://www.w3.org/2000/svg"
   xmlns="http://www.w3.org/2000/svg"
   xmlns:sodipodi="http://sodipodi.sourceforge.net/DTD/sodipodi-0.dtd"
   xmlns:inkscape="http://www.inkscape.org/namespaces/inkscape"
   width="640"
   height="350"
   viewBox="0 0 639.99997 350.00001"
   id="svg2"
   version="1.1"
   inkscape:version="0.91 r13725"
   sodipodi:docname="06.svg">
  <defs
     id="defs4" />
  <sodipodi:namedview
     id="base"
     pagecolor="#ffffff"
     bordercolor="#666666"
     borderopacity="1.0"
     inkscape:pageopacity="0.0"
     inkscape:pageshadow="2"
     inkscape:zoom="0.35"
     inkscape:cx="-473.57143"
     inkscape:cy="505.12936"
     inkscape:document-units="px"
     inkscape:current-layer="layer1"
     showgrid="false"
     inkscape:window-width="1366"
     inkscape:window-height="705"
     inkscape:window-x="-8"
     inkscape:window-y="-8"
     inkscape:window-maximized="1"
     units="px" />
  <metadata
     id="metadata7">
    <rdf:RDF>
      <cc:Work
         rdf:about="">
        <dc:format>image/svg+xml</dc:format>
        <dc:type
           rdf:resource="http://purl.org/dc/dcmitype/StillImage" />
        <dc:title></dc:title>
      </cc:Work>
    </rdf:RDF>
  </metadata>
  <g
     inkscape:label="Layer 1"
     inkscape:groupmode="layer"
     id="layer1"
     transform="translate(0,-702.36208)">
    <path
       style="fill:#000000"
       d="M 6.1538047,1049.3134 C 1.8258049,1047.3568 -3.0517578e-5,1031.7554 -3.0517578e-5,996.73025 l 0,-49.80106 L 30.670107,948.41716 c 28.375272,1.37662 31.021005,2.50504 35.359412,15.08086 3.659146,10.60685 2.823102,15.68633 -3.805804,23.12254 -7.496216,8.40913 -7.601796,9.87763 -0.897929,12.48924 9.559505,3.7241 10.249438,34.8001 0.946635,42.638 -7.623474,6.4232 -46.925598,11.7216 -56.1186163,7.5656 z m 52.7497743,-16.6142 c 2.802955,-5.3171 5.096284,-11.9036 5.096284,-14.6368 0,-10.9666 -16.34907,-20.67717 -34.813136,-20.67717 l -19.3406211,0 0,22.49057 0,22.4906 21.9806001,0 c 16.693021,0 23.206528,-2.3255 27.076873,-9.6672 z m -9.349283,-45.48562 c 10.732106,-5.83096 12.485505,-19.80648 3.614809,-28.81202 -3.249225,-3.29862 -14.326125,-5.99749 -24.615341,-5.99749 -18.543556,0 -18.7076581,0.17537 -18.7076581,19.99163 0,18.97625 0.7665701,19.99163 15.0928591,19.99163 8.301061,0 19.377971,-2.32819 24.615331,-5.17375 z m 48.900216,60.98372 c -6.824621,-2.3127 -6.528435,-100.79113 0.303135,-100.79113 3.373093,0 4.865313,16.35345 4.218443,46.23063 l -1.00094,46.2306 19.16614,0 19.16613,0 2.74995,-47.48007 2.74994,-47.48012 0.94236,48.72959 c 0.5183,26.8013 2.94233,48.7296 5.38676,48.7296 2.44442,0 23.76335,-21.3661 47.37541,-47.48012 23.61205,-26.11406 44.87357,-47.48011 47.24782,-47.48011 2.37424,0 4.3168,22.49058 4.3168,49.97906 0,29.98747 -1.96922,49.97907 -4.92306,49.97907 -2.7077,0 -4.92307,-5.6227 -4.92307,-12.4947 0,-11.8917 -1.37846,-12.4948 -28.5538,-12.4948 -26.10182,0 -40.36916,5.6523 -40.36916,15.9932 0,2.1991 7.01537,3.9984 15.58971,3.9984 8.57434,0 14.09917,1.5132 12.27739,3.3627 -3.34236,3.3932 -92.59919,5.5589 -101.719958,2.4682 z M 242.00546,989.88156 c 0.92752,-15.12241 0.37165,-27.49223 -1.23526,-27.48849 -3.47461,0.008 -43.84749,48.00893 -43.84749,52.13203 0,1.5684 9.76418,2.8517 21.69817,2.8517 l 21.69819,0 1.68639,-27.49524 z m 109.99391,56.98414 c -5.41538,-3.1581 -12.64024,-9.3004 -16.05524,-13.6495 -5.56222,-7.0837 -7.00176,-6.7586 -13.81759,3.1203 -6.26129,9.0752 -12.35348,11.0278 -34.40622,11.0278 l -26.79772,0 0,-52.47802 0,-52.47802 21.80216,0 c 22.27714,0 37.27466,9.19276 37.27466,22.84758 0,10.53341 4.1758,8.80838 17.45217,-7.20954 6.54138,-7.89217 18.72073,-15.73563 27.06519,-17.42989 18.42081,-3.74017 46.01047,7.02948 54.85952,21.41446 8.95085,14.55047 12.51459,12.89767 9.98075,-4.62888 -1.89012,-13.07405 -0.66841,-14.99373 9.54224,-14.99373 9.10035,0 16.08176,7.19998 31.32794,32.30871 10.78993,17.76978 21.46862,32.38863 23.73044,32.48643 2.2618,0.097 3.3695,-14.44595 2.46154,-32.31924 -1.59252,-31.34813 -1.23757,-32.49649 10.04143,-32.48639 10.36443,0.009 11.35683,1.7133 8.73844,15.00422 -3.59211,18.23371 -0.28602,18.93459 12.35558,2.61924 14.37279,-18.54982 42.06151,-25.45248 64.28469,-16.02587 9.80571,4.15937 20.30022,12.251 23.32111,17.98141 4.99504,9.47515 4.16536,10.41893 -9.15932,10.41893 -8.05852,0 -16.02104,-2.24905 -17.69449,-4.99791 -5.16484,-8.48392 -34.8025,-5.66478 -43.54459,4.14197 -12.70304,14.25008 -10.40323,38.31244 4.82397,50.47234 15.52253,12.3955 25.4083,13.0156 40.16909,2.5197 14.85338,-10.5619 9.45701,-17.1508 -14.0467,-17.1508 -13.96394,0 -19.40172,-2.1011 -19.40172,-7.49678 0,-5.94992 7.11108,-7.49689 34.46148,-7.49689 38.86045,0 42.26282,4.44359 25.17919,32.88477 -18.85486,31.3897 -62.89132,34.9333 -86.10294,6.9285 -15.47537,-18.6709 -18.35054,-18.6376 -14.64535,0.1699 2.65581,13.481 1.70427,14.9938 -9.43057,14.9938 -10.0029,0 -16.03812,-6.2304 -31.38455,-32.3991 -10.45009,-17.81947 -20.66169,-32.43835 -22.69246,-32.48637 -2.03077,-0.0481 -3.6923,14.53156 -3.6923,32.39907 0,29.736 -0.88091,32.4864 -10.4049,32.4864 -8.76065,0 -10.06236,-2.3694 -8.23725,-14.9937 1.19222,-8.2466 1.41243,-14.9938 0.48936,-14.9938 -0.92306,0 -7.73936,6.8861 -15.14733,15.3024 -15.08598,17.1393 -45.74233,24.0757 -62.69971,14.1865 z m -46.76915,-21.992 c 7.66806,-9.3799 -1.29292,-22.4905 -15.37201,-22.4905 -6.98833,0 -9.24333,3.6578 -9.24333,14.9936 0,11.3359 2.255,14.9938 9.24333,14.9938 5.08383,0 12.00124,-3.3736 15.37201,-7.4969 z m 90.41284,-2.8616 c 15.22722,-12.1599 17.52702,-36.22226 4.82397,-50.47234 -12.5098,-14.03331 -38.20396,-11.93337 -50.65812,4.14021 -12.13888,15.66668 -9.82109,29.19533 7.7859,45.44533 15.07015,13.9087 21.55224,14.0597 38.04825,0.8868 z m -75.64364,-32.41869 c 0,-4.2855 -2.25152,-6.37915 -5.00337,-4.65256 -2.75186,1.7266 -3.7288,5.23291 -2.17099,7.79182 4.22025,6.93232 7.17436,5.63969 7.17436,-3.13926 z M 300.30715,972.3957 c 0,-11.42236 -14.2094,-17.29227 -17.94382,-7.4126 -1.54103,4.07693 -1.54103,10.74827 0,14.8252 3.73442,9.87967 17.94382,4.00976 17.94382,-7.4126 z m 319.99945,69.9707 c 0,-5.5533 3.28205,-9.9958 7.38459,-9.9958 4.10254,0 7.38461,4.4425 7.38461,9.9958 0,5.5533 -3.28207,9.9958 -7.38461,9.9958 -4.10254,0 -7.38459,-4.4425 -7.38459,-9.9958 z M 76.307534,997.38523 c 0,-27.48848 1.661531,-49.97906 3.692303,-49.97906 2.030762,0 3.692303,22.49058 3.692303,49.97906 0,27.48847 -1.661541,49.97907 -3.692303,49.97907 -2.030772,0 -3.692303,-22.4906 -3.692303,-49.97907 z M 344.61476,882.43339 c 0,-13.74425 0.52874,-26.67633 1.17497,-28.73796 1.75365,-5.59459 53.07109,-27.05829 71.42693,-29.87457 8.79264,-1.34903 22.08492,-0.76001 29.53841,1.30893 l 13.5518,3.76171 -11.84176,3.14456 c -25.42125,6.75058 -26.76763,35.40361 -1.66357,35.40361 12.90333,0 24.73048,-5.34123 73.55825,-33.21945 18.9224,-10.80376 30.94345,-13.34785 58.10072,-12.29625 l 14.76921,0.57191 -15.99997,9.90367 c -31.70348,19.62381 -12.85271,39.47062 28.86306,30.38819 34.61651,-7.53676 33.90605,-7.94841 33.90605,19.64565 l 0,24.98953 -147.69204,0 -147.69206,0 0,-24.98953 z M 430.32915,780.6163 c -4.93794,-13.06367 1.61388,-23.13056 15.05401,-23.13056 15.44504,0 16.354,-7.77117 1.38527,-11.84361 -19.63192,-5.34114 -32.38954,-3.40173 -60.42638,9.18598 -43.47965,19.52107 -42.71519,19.83062 -42.80787,-17.334 l -0.081,-32.48639 148.27284,-1.32277 148.27285,-1.32275 0,36.96425 0,36.96426 -21.8723,5.59123 c -29.09002,7.43629 -44.65119,7.05157 -51.45586,-1.27216 -8.4662,-10.35621 -1.32977,-22.59315 16.00702,-27.44735 l 15.47507,-4.33293 -13.83579,-3.78632 c -23.79684,-6.51227 -52.4874,0.68862 -80.34236,20.16469 -30.72114,21.48008 -68.37279,29.35774 -73.64549,15.40843 z"
       id="path4218"
       inkscape:connector-curvature="0" />
  </g>
</svg>
