<?xml version="1.0" encoding="UTF-8" standalone="no"?>
<!-- Created with Inkscape (http://www.inkscape.org/) -->

<svg
   xmlns:dc="http://purl.org/dc/elements/1.1/"
   xmlns:cc="http://creativecommons.org/ns#"
   xmlns:rdf="http://www.w3.org/1999/02/22-rdf-syntax-ns#"
   xmlns:svg="http://www.w3.org/2000/svg"
   xmlns="http://www.w3.org/2000/svg"
   xmlns:sodipodi="http://sodipodi.sourceforge.net/DTD/sodipodi-0.dtd"
   xmlns:inkscape="http://www.inkscape.org/namespaces/inkscape"
   width="620"
   height="160"
   viewBox="0 0 619.99997 160.00001"
   id="svg2"
   version="1.1"
   inkscape:version="0.91 r13725"
   sodipodi:docname="07.svg">
  <defs
     id="defs4" />
  <sodipodi:namedview
     id="base"
     pagecolor="#ffffff"
     bordercolor="#666666"
     borderopacity="1.0"
     inkscape:pageopacity="0.0"
     inkscape:pageshadow="2"
     inkscape:zoom="0.35"
     inkscape:cx="-476.42857"
     inkscape:cy="505.12936"
     inkscape:document-units="px"
     inkscape:current-layer="layer1"
     showgrid="false"
     inkscape:window-width="1366"
     inkscape:window-height="705"
     inkscape:window-x="-8"
     inkscape:window-y="-8"
     inkscape:window-maximized="1"
     units="px" />
  <metadata
     id="metadata7">
    <rdf:RDF>
      <cc:Work
         rdf:about="">
        <dc:format>image/svg+xml</dc:format>
        <dc:type
           rdf:resource="http://purl.org/dc/dcmitype/StillImage" />
        <dc:title></dc:title>
      </cc:Work>
    </rdf:RDF>
  </metadata>
  <g
     inkscape:label="Layer 1"
     inkscape:groupmode="layer"
     id="layer1"
     transform="translate(0,-892.36214)">
    <path
       style="fill:#000000"
       d="m 506.76924,1038.0774 -13.77949,-14.2848 0,12.2848 c 0,6.7567 -1.84104,12.2848 -4.0912,12.2848 -2.33784,0 -4.09121,-12 -4.09121,-28 0,-16 1.75337,-28 4.09121,-28 2.25016,0 4.0912,6.43199 4.0912,14.2933 0,11.4517 1.42337,14.0294 7.1596,12.9658 8.34352,-1.547 12.73452,-23.2591 4.70391,-23.2591 -2.77466,0 -3.86198,-1.1565 -2.41623,-2.57 4.21177,-4.11789 15.09993,6.8319 15.09993,15.1853 0,4.1997 -2.76156,8.6718 -6.13681,9.9382 -8.53482,3.2021 -7.74107,6.9686 4.45487,21.1396 14.62981,16.9989 7.78171,15.5082 -9.08578,-1.9779 z m 93.81911,0.2848 c -7.87556,-7.7 -15.00959,-14 -15.8534,-14 -0.84382,0 -0.42958,5.4 0.92051,12 1.77534,8.6788 0.89777,12 -3.17067,12 -4.23731,0 -5.62541,-6.9091 -5.62541,-28 0,-20.9764 1.39927,-28 5.57835,-28 3.87101,0 5.02703,3.67279 3.77696,12 -2.31976,15.4533 1.81146,15.1751 14.84999,-1 5.76357,-7.15 10.49958,-11.29849 10.52455,-9.21887 0.0245,2.07961 -4.73316,8.65767 -10.57355,14.61787 l -10.61892,10.8366 16.75571,16.3822 c 9.21565,9.0102 14.73058,16.3822 12.2554,16.3822 -2.47517,0 -10.94396,-6.3 -18.81952,-14 z m -600.588380517578,-18 c 0,-17.3904 1.674977417578,-28 4.420462417578,-28 2.431254,0 10.3700711,8.1 17.6418151,18 7.271745,9.9 14.733379,18 16.581408,18 1.848024,0 4.325615,4.9384 5.505751,10.9743 l 2.145703,10.9744 -8.828362,-10.1785 c -4.855602,-5.5983 -13.804778,-16.3866 -19.887059,-23.9744 l -11.0586919,-13.7958 -0.1921123,23 c -0.105661,12.65 -1.5728917,23 -3.2605133,23 -1.6876206,0 -3.068401017578,-12.6 -3.068401017578,-28 z m 96.143231517578,0 0,-28 17.387609,0.64015 c 15.07241,0.55491 15.61716,0.85496 4.0912,2.25343 -10.91171,1.32395 -13.2964,3.36133 -13.2964,11.35982 0,7.7297 2.11651,9.7466 10.228,9.7466 5.62541,0 10.228,1.5504 10.228,3.4453 0,1.8949 -4.60259,2.5851 -10.228,1.5337 -9.10529,-1.7018 -10.228,-0.5697 -10.228,10.3132 0,11.181 1.31015,12.3589 15.342,13.7939 14.05594,1.4375 13.71299,1.6254 -4.0912,2.2415 l -19.433209,0.6724 0,-28 z m 117.091959,3.6193 c -4.22933,-13.1539 -6.58214,-24.99895 -5.22847,-26.32245 2.70196,-2.64173 10.87256,15.94065 10.87256,24.72755 0,14.2038 7.97016,7.9006 12.66725,-10.0178 2.88444,-11.0036 6.9344,-20.0066 8.99991,-20.0066 2.06551,0 2.44325,3.15 0.83942,7 -1.60384,3.85 -5.72759,15.1 -9.16391,25 -3.4363,9.9 -7.38391,19.2455 -8.77245,20.7677 -1.38854,1.5223 -5.98498,-7.9945 -10.21431,-21.1484 z m 91.54403,9.3807 c -0.009,-8.25 -3.66344,-20.85 -8.12227,-28 -4.45884,-7.15 -6.26593,-13 -4.01578,-13 2.25016,0 7.50656,5.49091 11.68088,12.202 l 7.58969,12.202 8.64607,-13.2019 c 4.75533,-7.26119 8.63614,-11.4021 8.62402,-9.2021 -0.0122,2.2 -3.62226,8.5 -8.02251,14.0001 -4.63731,5.7962 -8.0387,16.3054 -8.09144,24.9999 -0.0501,8.25 -1.93201,15 -4.18217,15 -2.25016,0 -4.09808,-6.75 -4.10649,-15 z m 80.02571,6.11 c -3.50284,-4.8895 -6.36879,-13.489 -6.36879,-19.11 0,-11.3405 10.25202,-28 17.23088,-28 2.47131,0 1.4464,3.29173 -2.27759,7.31497 -10.1312,10.94533 -8.82537,34.82453 2.32183,42.45823 7.1833,4.9192 7.66157,6.2268 2.27758,6.2268 -3.74832,0 -9.68108,-4.0005 -13.18391,-8.89 z m 35.79542,1.7472 c 9.57422,-10.3436 8.67167,-28.5291 -1.96533,-39.5994 -4.8926,-5.09179 -6.86725,-9.2578 -4.38814,-9.2578 6.65306,0 21.46608,19.8756 21.46608,28.8024 0,10.7448 -6.63646,21.7617 -14.99896,24.8992 -6.62615,2.486 -6.6329,2.1987 -0.11373,-4.8444 z m -236.03128,-17.8572 c -3.94135,-11.55 -8.11307,-23.25 -9.27048,-26 -1.15742,-2.75 -0.35661,-5 1.77956,-5 2.13617,0 7.81271,10.5348 12.61454,23.4107 9.71567,26.0521 10.19369,28.5893 5.38652,28.5893 -1.83923,0 -6.56879,-9.45 -10.51014,-21 z M 38.866383,1009.0288 c 0,-9.1666 1.725293,-16.6666 3.833984,-16.6666 2.123801,0 2.777958,6.6909 1.466528,15 -3.278156,20.7702 -5.300512,21.406 -5.300512,1.6666 z m 173.770827,-71.6666 -14.93976,-15 1.69993,13 c 0.99997,7.64717 -0.11404,13 -2.70551,13 -2.72688,0 -4.40543,-10.66853 -4.40543,-27.99999 0,-18.94247 1.57109,-28.00001 4.85679,-28.00001 3.26574,0 4.09556,4.58627 2.53309,14 -2.05546,12.38395 -1.30256,14.00001 6.52242,14.00001 10.89612,0 15.6038,-10.50485 9.20031,-20.52987 -5.3235,-8.33427 -0.84944,-10.10326 6.75316,-2.67014 6.83122,6.67894 6.13658,18.99069 -1.22736,21.7535 -8.92764,3.34949 -7.57476,9.5413 4.85663,22.22763 6.04639,6.17038 8.92389,11.21887 6.39445,11.21887 -2.52942,0 -11.32186,-6.75 -19.53872,-15 z M -3.0517578e-5,920.36221 c 0,-19.03019 1.564603017578,-28.00001 4.884031117578,-28.00001 3.382248,0 4.681207,8.60968 4.2244169,28.00001 -0.8763373,37.19973 -9.108448017578,37.19973 -9.108448017578,0 z M 25.569979,944.0622 c 6.922682,-7.17446 6.463397,-19.44481 -0.830256,-22.18125 -4.682165,-1.75666 -4.951589,-3.78426 -1.268945,-9.54966 3.58177,-5.60747 3.419564,-8.79884 -0.69349,-13.64428 -2.952842,-3.47865 -3.527763,-6.32481 -1.277602,-6.32481 8.656982,0 15.050181,12.30305 10.276634,19.77631 -3.548909,5.55603 -3.05911,8.58648 2.222397,13.75025 7.392163,7.22737 3.42535,18.42737 -7.698225,21.73537 -4.70654,1.39966 -4.848777,0.70612 -0.730513,-3.56193 z m 70.098682,-13.51612 c 3.804382,-9.79886 8.229059,-19.09887 9.832609,-20.66666 1.60354,-1.5678 2.91554,-6.45056 2.91554,-10.85055 0,-11.60932 3.98719,-6.02504 16.6489,23.31763 7.31798,16.95898 9.50392,26.0157 6.27918,26.0157 -2.72079,0 -8.30551,-9.13182 -12.41051,-20.29294 -8.20584,-22.31097 -10.55728,-21.89564 -18.64343,3.29294 -3.001577,9.35 -6.825856,17 -8.498388,17 -1.672542,0 0.07169,-8.01725 3.876099,-17.81612 z m 188.669819,7.81612 c 0,-5.5 1.84104,-10 4.0912,-10 2.25015,0 4.0912,4.5 4.0912,10 0,5.50001 -1.84105,10 -4.0912,10 -2.25016,0 -4.0912,-4.49999 -4.0912,-10 z m 33.67434,-3.02733 c -19.18871,-26.81477 -25.8214,-32.92362 -29.47366,-27.14586 -2.30066,3.63955 -3.20815,1.94109 -2.78414,-5.21082 0.81931,-13.81936 3.50696,-13.38961 17.59284,2.81306 20.31486,23.3677 24.40482,28.75283 27.15035,35.74807 4.37608,11.14968 -2.51852,7.7235 -12.48539,-6.20445 z m 72.69689,-14.97266 0,-28.00001 16.36481,0 c 9.00064,0 16.3648,1.48826 16.3648,3.30723 0,1.81897 -5.52312,2.51468 -12.2736,1.546 -11.47594,-1.64676 -12.2736,-0.92153 -12.2736,11.15908 0,11.62476 1.02558,12.72863 10.228,11.00869 5.6254,-1.05139 10.228,-0.36123 10.228,1.53369 0,1.89492 -4.81154,3.44531 -10.69235,3.44531 -9.55323,0 -10.50044,1.27844 -8.89097,12 1.22926,8.18876 0.0773,12 -3.62685,12 -3.99321,0 -5.42824,-7.4022 -5.42824,-27.99999 z m 106.37124,14.55818 c 0,-7.69798 -4.31785,-19.66269 -10.1047,-28 -12.32937,-17.76334 -6.65036,-19.41589 7.21156,-2.09851 l 9.97349,12.45969 5.64091,-12.45969 c 3.10253,-6.85282 7.18272,-12.45968 9.06713,-12.45968 1.88441,0 -0.40626,6.06246 -5.0899,13.47214 -4.68386,7.40967 -8.51609,20.00967 -8.51609,28 0,7.99032 -1.84103,14.52786 -4.0912,14.52786 -2.25016,0 -4.0912,-6.04882 -4.0912,-13.44181 z m 81.82403,9.20574 c 0,-2.32983 1.84104,-3.1236 4.09121,-1.76393 2.25015,1.35968 4.0912,3.26591 4.0912,4.23607 0,0.97016 -1.84105,1.76393 -4.0912,1.76393 -2.25017,0 -4.09121,-1.90623 -4.09121,-4.23607 z m 23.34121,-4.76393 c 1.31572,-6.76441 -1.36581,-10.79496 -10.79534,-16.22614 -13.87612,-7.99235 -16.16536,-18.87507 -5.73926,-27.28408 6.14642,-4.95732 6.34946,-4.65083 2.09348,3.1598 -4.16501,7.64368 -2.99309,9.99866 10.07724,20.25033 11.76134,9.22492 14.20869,13.39268 11.95003,20.35042 -3.73687,11.51135 -9.83472,11.31013 -7.58615,-0.25032 z m -276.9957,-28.33334 c 0,-10.26666 1.66586,-18.66666 3.70189,-18.66666 3.3343,0 1.36585,31.63684 -2.21919,35.66667 -0.81548,0.91666 -1.4827,-6.73333 -1.4827,-17.00001 z m 276.1561,-14.66666 c -1.39068,-2.2 -0.57882,-4 1.80414,-4 2.38295,0 4.33266,1.8 4.33266,4 0,2.20001 -0.81186,4.00001 -1.80414,4.00001 -0.99227,0 -2.94198,-1.8 -4.33266,-4.00001 z"
       id="path4231"
       inkscape:connector-curvature="0" />
  </g>
</svg>
