<?xml version="1.0" encoding="UTF-8" standalone="no"?>
<!-- Created with Inkscape (http://www.inkscape.org/) -->

<svg
   xmlns:dc="http://purl.org/dc/elements/1.1/"
   xmlns:cc="http://creativecommons.org/ns#"
   xmlns:rdf="http://www.w3.org/1999/02/22-rdf-syntax-ns#"
   xmlns:svg="http://www.w3.org/2000/svg"
   xmlns="http://www.w3.org/2000/svg"
   xmlns:sodipodi="http://sodipodi.sourceforge.net/DTD/sodipodi-0.dtd"
   xmlns:inkscape="http://www.inkscape.org/namespaces/inkscape"
   width="640"
   height="90"
   viewBox="0 0 639.99997 90.000003"
   id="svg2"
   version="1.1"
   inkscape:version="0.91 r13725"
   sodipodi:docname="08.svg">
  <defs
     id="defs4" />
  <sodipodi:namedview
     id="base"
     pagecolor="#ffffff"
     bordercolor="#666666"
     borderopacity="1.0"
     inkscape:pageopacity="0.0"
     inkscape:pageshadow="2"
     inkscape:zoom="0.35"
     inkscape:cx="-476.42857"
     inkscape:cy="505.12936"
     inkscape:document-units="px"
     inkscape:current-layer="layer1"
     showgrid="false"
     inkscape:window-width="1366"
     inkscape:window-height="705"
     inkscape:window-x="-8"
     inkscape:window-y="-8"
     inkscape:window-maximized="1"
     units="px" />
  <metadata
     id="metadata7">
    <rdf:RDF>
      <cc:Work
         rdf:about="">
        <dc:format>image/svg+xml</dc:format>
        <dc:type
           rdf:resource="http://purl.org/dc/dcmitype/StillImage" />
        <dc:title></dc:title>
      </cc:Work>
    </rdf:RDF>
  </metadata>
  <g
     inkscape:label="Layer 1"
     inkscape:groupmode="layer"
     id="layer1"
     transform="translate(0,-962.36214)">
    <path
       style="fill:#000000"
       d="m 39.795214,1009.3399 39.795251,-43.02215 -31.668377,1.22833 c -29.964146,1.16222 -31.816672,1.80345 -34.42416,11.91534 -2.540989,9.85401 -2.786709,9.6041 -3.152469,-3.2061 l -0.3966785,-13.89312 50.6642735,0 50.664286,0 -39.645919,42.748 -39.645931,42.7481 34.74618,0 c 34.18556,0 34.74619,-0.1684 34.74619,-10.4347 0,-5.7392 1.91799,-11.7081 4.2622,-13.2644 2.789,-1.8515 3.82062,2.1245 2.98464,11.5034 l -1.27756,14.3331 -53.72359,1.1833 L -3.0517578e-5,1052.3622 39.795214,1009.3399 Z m 118.351506,39.0813 c 8.48458,-2.101 15.99079,-11.6987 33.82595,-43.2503 12.6069,-22.30243 24.71242,-40.39242 26.90116,-40.19992 2.18874,0.19248 13.86708,18.36292 25.95188,40.37882 15.66299,28.5345 24.80477,40.8761 31.8362,42.9799 5.52515,1.6531 -5.01478,2.8569 -23.96213,2.7368 -18.60427,-0.1179 -28.90129,-1.0158 -22.88226,-1.9952 12.8291,-2.0877 13.4322,-5.033 3.85051,-18.8045 -3.90124,-5.6071 -10.57623,-17.4085 -14.83329,-26.2252 -4.25706,-8.81684 -8.6929,-16.03057 -9.85742,-16.03057 -3.0429,0 -31.8885,51.72357 -31.8885,57.17987 0,1.1547 4.92466,2.9009 10.94369,3.8804 6.01903,0.9794 -0.69641,1.8415 -14.92321,1.9155 -15.78396,0.082 -21.6164,-0.9178 -14.96258,-2.5656 z m 183.09748,0.6501 10.9437,-1.7809 0,-40.0427 0,-40.04281 -10.9437,-1.78084 c -6.01903,-0.97946 13.55171,-2.06907 43.49052,-2.42134 44.73754,-0.52641 55.54819,0.55612 60.68775,6.07705 11.08879,11.91157 6.96906,28.58421 -8.59083,34.76724 l -8.65042,3.4374 11.56777,19.9644 c 7.0016,12.0837 15.17312,20.7055 20.70136,21.8421 5.02344,1.0329 -0.1365,2.1398 -11.46692,2.46 l -20.60045,0.5822 -12.64908,-23.7488 c -11.57356,-21.7293 -13.71323,-23.6376 -25.1641,-22.4427 -11.87575,1.2393 -12.57635,2.3276 -13.7163,21.306 -1.14189,19.0106 -0.64974,20.0892 9.94881,21.8023 6.13256,0.9912 -4.07156,1.8022 -22.67584,1.8022 -18.60427,0 -28.9013,-0.8014 -22.88227,-1.7808 z m 84.13265,-57.85417 c 8.01994,-13.72576 -1.66766,-22.28848 -26.84145,-23.72476 l -22.47035,-1.28202 0,17.52588 0,17.52587 22.47035,-1.28206 c 16.16769,-0.92241 23.69639,-3.38025 26.84145,-8.76291 z m 93.95108,57.85977 c 7.69406,-1.3729 15.30621,-11.4004 33.58743,-44.245 13.00127,-23.35831 24.94657,-42.4697 26.5451,-42.4697 1.59858,0 13.25723,19.14605 25.90818,42.5468 18.25778,33.7718 25.09428,42.897 33.14777,44.245 5.58036,0.9339 -5.07561,1.6981 -23.67988,1.6981 -18.60429,0 -28.9013,-0.8014 -22.88227,-1.7808 6.01903,-0.9795 10.94369,-2.3819 10.94369,-3.1164 0,-0.7346 -6.26776,-12.5166 -13.92833,-26.1821 -7.66059,-13.6657 -13.92834,-26.56283 -13.92834,-28.66042 0,-9.29462 -9.21714,1.17585 -23.62277,26.83502 l -15.5927,27.7735 12.64355,2.6433 c 8.51104,1.7795 4.18896,2.618 -13.22333,2.5657 -14.2268,-0.043 -21.38994,-0.8766 -15.9181,-1.853 z"
       id="path4244"
       inkscape:connector-curvature="0" />
  </g>
</svg>
