<?xml version="1.0" encoding="UTF-8" standalone="no"?>
<!-- Created with Inkscape (http://www.inkscape.org/) -->

<svg
   xmlns:dc="http://purl.org/dc/elements/1.1/"
   xmlns:cc="http://creativecommons.org/ns#"
   xmlns:rdf="http://www.w3.org/1999/02/22-rdf-syntax-ns#"
   xmlns:svg="http://www.w3.org/2000/svg"
   xmlns="http://www.w3.org/2000/svg"
   xmlns:sodipodi="http://sodipodi.sourceforge.net/DTD/sodipodi-0.dtd"
   xmlns:inkscape="http://www.inkscape.org/namespaces/inkscape"
   width="650"
   height="320"
   viewBox="0 0 649.99997 320.00001"
   id="svg2"
   version="1.1"
   inkscape:version="0.91 r13725"
   sodipodi:docname="10.svg">
  <defs
     id="defs4" />
  <sodipodi:namedview
     id="base"
     pagecolor="#ffffff"
     bordercolor="#666666"
     borderopacity="1.0"
     inkscape:pageopacity="0.0"
     inkscape:pageshadow="2"
     inkscape:zoom="0.35"
     inkscape:cx="-473.57143"
     inkscape:cy="505.12936"
     inkscape:document-units="px"
     inkscape:current-layer="layer1"
     showgrid="false"
     inkscape:window-width="1366"
     inkscape:window-height="705"
     inkscape:window-x="-8"
     inkscape:window-y="-8"
     inkscape:window-maximized="1"
     units="px" />
  <metadata
     id="metadata7">
    <rdf:RDF>
      <cc:Work
         rdf:about="">
        <dc:format>image/svg+xml</dc:format>
        <dc:type
           rdf:resource="http://purl.org/dc/dcmitype/StillImage" />
        <dc:title></dc:title>
      </cc:Work>
    </rdf:RDF>
  </metadata>
  <g
     inkscape:label="Layer 1"
     inkscape:groupmode="layer"
     id="layer1"
     transform="translate(0,-732.36214)">
    <path
       style="fill:#000000"
       d="m -3.0517578e-5,974.45112 0,-77.22049 44.915885517578,0 c 31.560437,0 46.887294,2.38302 51.545993,8.0144 4.244072,5.13019 6.034272,26.23009 4.974462,58.63038 l -1.655644,50.61599 -27.083335,1.7434 c -25.786078,1.6599 -27.083326,2.5503 -27.083326,18.5901 0,15.8411 -1.361343,16.8467 -22.807018,16.8467 l -22.807017517578,0 0,-77.22048 z M 57.017513,957.29101 c 0,-20.0778 -2.565789,-38.09591 -5.70175,-40.04026 -3.610584,-2.23861 -5.701758,12.44655 -5.701758,40.04026 0,27.59372 2.091174,42.27887 5.701758,40.04025 3.135961,-1.94435 5.70175,-19.96246 5.70175,-40.04025 z m 62.390847,90.09049 c -0.18064,-2.3595 -0.32134,-36.4652 -0.31264,-75.7904 l 0.0159,-71.50046 20.09062,-1.76464 20.09061,-1.76465 1.60361,70.40509 c 2.12302,93.20916 12.48068,93.44636 14.60805,0.33462 l 1.60076,-70.07043 19.78066,0 19.78064,0 0,77.22049 0,77.22048 -48.46492,0 c -26.6557,0 -48.61271,-1.9305 -48.79335,-4.2901 z m 115.62347,-71.50037 1.59094,-75.79049 70.47022,-1.61109 c 47.08665,-1.07648 73.1012,0.57944 78.39913,4.99042 5.98921,4.98655 7.9289,23.92169 7.9289,77.40158 l 0,70.80005 -22.80702,0 -22.80701,0 0,-66.25708 c 0,-50.46889 -1.69833,-65.68673 -7.1272,-63.8635 -5.04943,1.6958 -7.37158,20.59466 -7.96547,64.82709 l -0.83827,62.43349 -20.54331,1.7753 -20.54331,1.7753 0,-66.12572 c 0,-54.96505 -1.4435,-66.1257 -8.55262,-66.1257 -7.10654,0 -8.55264,11.12228 -8.55264,65.78041 l 0,65.78041 -20.12163,0 -20.12164,0 1.59093,-75.79047 z m 169.7927,4.99042 c 0,-53.88727 1.91707,-72.3962 8.02522,-77.48177 4.97574,-4.14274 23.93345,-6.03904 49.89035,-4.99042 l 41.86513,1.69128 1.59093,75.79049 1.59093,75.79047 -20.12163,0 c -18.5562,0 -20.12164,-1.335 -20.12164,-17.1601 0,-11.44 -2.85087,-17.1601 -8.55262,-17.1601 -5.70176,0 -8.55264,5.7201 -8.55264,17.1601 0,16.2067 -1.26705,17.1601 -22.80701,17.1601 l -22.80702,0 0,-70.80005 z m 62.71929,-23.91812 c 0,-28.93568 -1.83552,-36.84265 -8.55262,-36.84265 -6.70207,0 -8.55264,7.83856 -8.55264,36.22689 0,19.9248 1.64077,37.87293 3.64616,39.88475 8.73907,8.76708 13.4591,-5.00437 13.4591,-39.26899 z m 68.42106,80.41807 c 0,-4.719 2.56579,-8.58 5.70175,-8.58 3.13596,0 5.70176,3.861 5.70176,8.58 0,4.719 -2.5658,8.5801 -5.70176,8.5801 -3.13596,0 -5.70175,-3.8611 -5.70175,-8.5801 z m 51.51637,-59.68432 c -3.24628,-6.08521 -5.90233,-15.36733 -5.90233,-20.6269 0,-5.25959 -6.49955,-14.6918 -14.44337,-20.96047 -7.94385,-6.26867 -20.57265,-23.53192 -28.06399,-38.36276 -17.31866,-34.28632 -22.56166,-38.23249 -57.27334,-43.10711 -18.55737,-2.60604 -35.83777,-9.83184 -49.50485,-20.70043 -16.63021,-13.22499 -23.74383,-15.67543 -34.21052,-11.78457 -8.3986,3.12206 -20.76769,2.24182 -33.94006,-2.41536 -15.68879,-5.54686 -22.32838,-5.71973 -27.32075,-0.71135 -4.99239,5.00839 -7.89728,4.54277 -11.95312,-1.91593 -6.64665,-10.58442 7.77185,-22.83233 26.87871,-22.83233 7.24053,0 13.16462,-2.57402 13.16462,-5.72004 0,-3.14602 -4.01737,-5.72003 -8.92748,-5.72003 -4.91011,0 -13.89037,-2.66458 -19.95613,-5.92129 -10.47466,-5.62384 -10.54757,-6.65789 -1.45159,-20.58464 5.2674,-8.06484 14.48755,-16.48567 20.48922,-18.71295 14.87928,-5.52185 69.38757,21.16575 108.49043,53.1176 72.06374,58.88492 98.88877,58.50864 129.24167,-1.8129 22.76078,-45.23344 57.2016,-72.88958 57.2016,-45.93316 0,7.16722 -7.44483,16.03962 -19.39327,23.11197 -12.2749,7.26561 -25.11605,22.82615 -34.98448,42.39334 -8.57521,17.00288 -19.00782,32.22961 -23.18361,33.83714 -6.24394,2.4037 -6.10648,6.49041 0.77395,23.01046 4.60149,11.0482 8.36636,29.02746 8.36636,39.95391 0,10.92645 2.6386,21.50223 5.86351,23.50173 3.22491,1.99951 9.2097,11.80397 13.29945,21.78771 11.89968,29.0487 0.35978,52.63968 -13.26063,27.10836 z"
       id="path4270"
       inkscape:connector-curvature="0" />
  </g>
</svg>
