<?xml version="1.0" encoding="UTF-8" standalone="no"?>
<svg
   xmlns:dc="http://purl.org/dc/elements/1.1/"
   xmlns:cc="http://creativecommons.org/ns#"
   xmlns:rdf="http://www.w3.org/1999/02/22-rdf-syntax-ns#"
   xmlns:svg="http://www.w3.org/2000/svg"
   xmlns="http://www.w3.org/2000/svg"
   xmlns:sodipodi="http://sodipodi.sourceforge.net/DTD/sodipodi-0.dtd"
   xmlns:inkscape="http://www.inkscape.org/namespaces/inkscape"
   width="382.69101"
   height="1148.072"
   viewBox="0 0 382.69101 1148.072"
   fill="none"
   version="1.1"
   id="svg101"
   sodipodi:docname="clock.svg"
   inkscape:version="1.0 (4035a4fb49, 2020-05-01)">
  <metadata
     id="metadata105">
    <rdf:RDF>
      <cc:Work
         rdf:about="">
        <dc:format>image/svg+xml</dc:format>
        <dc:type
           rdf:resource="http://purl.org/dc/dcmitype/StillImage" />
        <dc:title />
      </cc:Work>
    </rdf:RDF>
  </metadata>
  <sodipodi:namedview
     inkscape:document-rotation="0"
     pagecolor="#ffffff"
     bordercolor="#666666"
     borderopacity="1"
     objecttolerance="10"
     gridtolerance="10"
     guidetolerance="10"
     inkscape:pageopacity="0"
     inkscape:pageshadow="2"
     inkscape:window-width="1920"
     inkscape:window-height="1017"
     id="namedview103"
     showgrid="false"
     inkscape:zoom="1.7535354"
     inkscape:cx="124.69746"
     inkscape:cy="975.21642"
     inkscape:window-x="1272"
     inkscape:window-y="-8"
     inkscape:window-maximized="1"
     inkscape:current-layer="svg101" />
  <path
     opacity="0.997"
     fill-rule="evenodd"
     clip-rule="evenodd"
     d="m 346.11026,0.34969363 c 10.01027,-1.01518494 19.85934,0.1799946 29.54606,3.58553977 2.64172,3.6880847 4.75232,8.0703586 6.33063,13.1469276 0.93933,23.10699 0.93933,46.213633 0,69.320508 -2.34601,8.761881 -6.33179,13.941081 -11.95851,15.537361 -7.95881,1.19365 -15.9327,1.59223 -23.91818,1.19516 -76.67501,-2.38799 -153.58776,-3.184684 -230.73963,-2.39043 -8.9102,0 -17.821915,0 -26.732119,0 -4.869451,-4.721822 -7.91683,-11.892985 -9.145152,-21.513138 -0.938404,-19.91964 -0.938404,-39.839511 0,-59.759035 C 81.252114,13.088608 83.830986,7.9094433 87.231601,3.9352334 173.76021,3.5358085 260.05468,2.3406301 346.11026,0.34969363 Z"
     fill="#be6c0d"
     id="path2"
     style="stroke-width:1.15967" />
  <path
     fill-rule="evenodd"
     clip-rule="evenodd"
     d="M 346.11026,0.34931558 C 260.05352,2.3402474 173.76021,3.5354258 87.231253,3.9348507 83.830639,7.9090722 81.25165,13.08826 79.493011,19.472239 c -0.93852,19.919524 -0.93852,39.839395 0,59.758919 1.228206,9.620269 4.275701,16.791316 9.145153,21.513262 -17.602389,-0.785449 -34.95568,0.0115 -52.057092,2.39031 -7.98583,0.39707 -15.959021,-0.001 -23.918179,-1.19516 -5.6263907,-1.59628 -9.6122785,-6.775483 -11.95906647,-15.537365 -0.93843571,-23.106875 -0.93843571,-46.213517 0,-69.320392 C 2.8142507,10.309228 5.8631141,5.1300291 9.8490019,1.544494 121.93459,0.34931558 234.02243,-0.04915746 346.11026,0.34931558 Z"
     fill="#a86323"
     id="path4"
     style="stroke-width:1.15967" />
  <path
     fill-rule="evenodd"
     clip-rule="evenodd"
     d="m 115.36866,100.74476 c 77.15152,-0.79437 154.06543,0.002 230.73928,2.39031 -76.44308,0 -152.88848,0 -229.33272,0 0,66.93043 0,133.85959 0,200.7899 -1.40378,-67.31648 -1.87229,-135.04349 -1.40656,-203.18021 z"
     fill="#f5d4ac"
     id="path6"
     style="stroke-width:1.15967" />
  <path
     fill-rule="evenodd"
     clip-rule="evenodd"
     d="m 88.636308,100.74476 c 8.910203,0 17.821802,0 26.732002,0 -0.46561,68.13672 0.003,135.86373 1.40691,203.18021 0.94513,26.41611 4.22931,51.91376 9.84907,76.49179 -16.44191,-0.79322 -32.855402,0.002 -49.243616,2.39008 22.141218,69.42128 56.376746,108.46271 102.707856,117.12776 0,50.19744 0,100.39489 0,150.59233 0,0.7967 0,1.59455 0,2.39124 -32.34434,38.726 -52.74524,91.31352 -61.20271,157.76373 -2.28803,16.22262 -2.52112,32.15995 -0.70392,47.80737 0,1.59338 -0.46851,2.39008 -1.40668,2.39008 -0.9384,0 -1.40691,0.79553 -1.40691,2.39008 -35.025957,46.51897 -52.377857,107.87243 -52.057092,184.05807 -9.176115,0.7723 -18.086318,-0.024 -26.732001,-2.3901 -0.234949,-68.52948 0,-137.05202 0.703455,-205.57108 7.435684,-101.4038 38.1537,-174.30989 92.154978,-218.71827 11.57814,-16.78737 15.56508,-37.90147 11.95967,-63.34461 -2.76233,-15.05715 -8.15596,-26.60978 -16.18087,-34.6602 C 73.383642,478.34967 44.07126,407.03813 37.282672,308.70629 36.579217,240.18607 36.344268,171.66353 36.579217,103.13519 c 17.101411,-2.37895 34.454819,-3.175871 52.057091,-2.39043 z"
     fill="#fed59a"
     id="path8"
     style="stroke-width:1.15967" />
  <path
     opacity="0.996"
     fill-rule="evenodd"
     clip-rule="evenodd"
     d="m 346.11026,103.13507 c 0.23541,68.52846 0,137.051 -0.70276,205.57122 -7.44044,101.42236 -38.15892,174.32845 -92.15544,218.71711 -11.57814,16.78853 -15.56508,37.90263 -11.95967,63.34461 2.404,11.74166 6.39094,21.70206 11.95967,29.88004 53.99652,44.38867 84.715,117.29475 92.15544,218.71827 0.70276,68.51906 0.93817,137.0416 0.70276,205.56998 -8.64533,2.3668 -17.55623,3.1624 -26.73154,2.3912 0.4488,-11.6245 -0.0197,-22.7805 -1.40667,-33.4657 -6.61592,-78.54908 -30.5341,-136.31684 -71.75454,-173.30102 -13.99257,-10.12507 -28.53019,-16.89986 -43.61632,-20.3174 0,-63.74355 0,-127.48593 0,-191.22947 0,-0.79554 0,-1.59455 0,-2.39008 16.08577,-14.84145 22.41756,-37.9467 18.99422,-69.32039 -3.21344,-16.99844 -9.54408,-28.94999 -18.99422,-35.85582 0,-0.79553 0,-1.59454 0,-2.39008 0,-6.3747 0,-12.74708 0,-19.12294 45.47991,-8.80073 79.24716,-47.04663 101.30059,-114.73652 0.76422,-0.1438 1.23273,-0.9405 1.40668,-2.39124 -59.5525,-2.39008 -119.11312,-3.18561 -178.68185,-2.39008 -5.61976,-24.57803 -8.90278,-50.07568 -9.84907,-76.49179 0,-66.92915 0,-133.85947 0,-200.7899 76.44424,0 152.88964,0 229.33272,0 z"
     fill="#fee9ce"
     id="path10"
     style="stroke-width:1.15967" />
  <path
     fill-rule="evenodd"
     clip-rule="evenodd"
     d="m 126.62545,380.41676 c 59.56873,-0.79553 119.12935,0 178.68301,2.39008 -0.17395,1.45074 -0.64246,2.24744 -1.40668,2.39008 -58.38471,-2.38776 -117.006,-3.1833 -175.86849,-2.39008 -0.93933,0 -1.40784,-0.79554 -1.40784,-2.39008 z"
     fill="#face71"
     id="path12"
     style="stroke-width:1.15967" />
  <path
     fill-rule="evenodd"
     clip-rule="evenodd"
     d="m 126.62661,380.41676 c 0,1.59454 0.46851,2.39008 1.40668,2.39008 14.64082,61.52857 39.49718,106.9447 74.5679,136.2507 0,0.7967 0,1.59455 0,2.39008 0,35.06028 0,70.11709 0,105.17621 0,0.79669 0,1.59454 0,2.39008 -7.92055,5.93055 -15.42361,13.10194 -22.51035,21.51418 0,-50.1986 0,-100.39605 0,-150.59349 -46.3311,-8.66505 -80.566629,-47.70648 -102.707847,-117.12776 16.388215,-2.38776 32.801597,-3.1833 49.243617,-2.39008 z"
     fill="#db9d2f"
     id="path14"
     style="stroke-width:1.15967" />
  <path
     fill-rule="evenodd"
     clip-rule="evenodd"
     d="m 128.03213,382.80684 c 58.86249,-0.79322 117.48494,0.003 175.86849,2.39124 -22.05343,67.68989 -55.82068,105.93579 -101.29943,114.73652 0,6.37586 0,12.74824 0,19.12294 -35.07188,-29.306 -59.92824,-74.72213 -74.56906,-136.2507 z"
     fill="#f8bb32"
     id="path16"
     style="stroke-width:1.15967" />
  <path
     fill-rule="evenodd"
     clip-rule="evenodd"
     d="m 202.60003,521.44762 c 9.44898,6.90583 15.78078,18.85738 18.99422,35.85582 3.42334,31.37369 -2.90845,54.47894 -18.99422,69.32039 0,-35.05912 0,-70.11593 0,-105.17621 z"
     fill="#ffd59a"
     id="path18"
     style="stroke-width:1.15967" />
  <path
     fill-rule="evenodd"
     clip-rule="evenodd"
     d="m 202.60119,629.01391 c 0,63.74354 0,127.48592 0,191.22947 15.08613,3.41754 29.62375,10.19233 43.61632,20.3174 41.22044,36.98418 65.13862,94.75194 71.75454,173.30102 0,10.3581 0,20.7175 0,31.0745 -67.066,0 -134.12968,0 -201.19451,0 0,-61.35234 0,-122.70349 0,-184.05695 0.93817,0 1.40668,-0.7967 1.40668,-2.39008 18.2416,-21.22427 38.40709,-33.97251 60.49879,-38.24589 1.40783,-55.75343 1.87634,-111.52772 1.40783,-167.32521 0,-0.79669 0,-1.59454 0,-2.39008 7.08674,-8.41224 14.5898,-15.58363 22.51035,-21.51418 z"
     fill="#f8bb32"
     id="path20"
     style="stroke-width:1.15967" />
  <path
     fill-rule="evenodd"
     clip-rule="evenodd"
     d="m 244.80851,648.13685 c 3.96723,-0.60186 7.71876,0.5926 11.25575,3.5857 40.38432,39.17595 65.00642,97.73925 73.86398,175.69222 0.93933,15.13716 0.93933,30.27781 0,45.41613 -3.51264,4.72797 -7.49959,5.92359 -11.95851,3.5857 -1.68964,-2.15815 -2.86323,-4.94599 -3.51728,-8.36586 -1.93201,-90.26054 -26.3187,-156.39184 -73.16122,-198.40086 -1.50525,-8.70564 -0.33282,-15.87587 3.51728,-21.51303 z"
     fill="#fcf8dd"
     id="path22"
     style="stroke-width:1.15967" />
  <path
     fill-rule="evenodd"
     clip-rule="evenodd"
     d="m 180.09084,652.91817 c 0.46851,55.79749 0,111.57178 -1.40667,167.32521 -22.09286,4.27338 -42.25835,17.02162 -60.49879,38.24589 -1.81836,-15.64742 -1.58411,-31.58475 0.70276,-47.80737 8.45747,-66.45021 28.85837,-119.03773 61.2027,-157.76373 z"
     fill="#ffe9ce"
     id="path24"
     style="stroke-width:1.15967" />
  <path
     fill-rule="evenodd"
     clip-rule="evenodd"
     d="m 115.36993,863.26943 c 0,61.35346 0,122.70461 0,184.05807 -8.9102,0 -17.821795,0 -26.731998,0 -8.441697,0 -16.883394,0 -25.325091,0 -0.32088,-76.18564 17.031136,-137.5391 52.057089,-184.05807 z"
     fill="#db9c2e"
     id="path26"
     style="stroke-width:1.15967" />
  <path
     fill-rule="evenodd"
     clip-rule="evenodd"
     d="m 147.73143,946.93145 c 28.63804,1.2049 37.78319,24.31247 27.43546,69.32035 -12.72969,21.2893 -25.86063,22.0848 -39.39397,2.3913 -10.69331,-31.14178 -6.70752,-55.04604 11.95851,-71.71165 z"
     fill="#db9c2e"
     id="path28"
     style="stroke-width:1.15967" />
  <path
     fill-rule="evenodd"
     clip-rule="evenodd"
     d="m 116.77638,860.87935 c 0,61.35346 0,122.70461 0,184.05805 67.06484,0 134.12851,0 201.19335,0 0,-10.3581 0,-20.7175 0,-31.0756 1.38696,10.6852 1.85547,21.8412 1.40668,33.4657 -68.00185,0 -136.00486,0 -204.00741,0 0,-61.35346 0,-122.70461 0,-184.05807 0,-1.59455 0.46851,-2.39008 1.40738,-2.39008 z"
     fill="#edae32"
     id="path30"
     style="stroke-width:1.15967" />
  <path
     opacity="0.997"
     fill-rule="evenodd"
     clip-rule="evenodd"
     d="m 346.11026,1044.9374 c 7.98548,-0.3977 15.95937,0 23.91818,1.1945 5.62672,1.5968 9.6125,6.7771 11.95851,15.5372 0.93933,23.1076 0.93933,46.2129 0,69.3204 -1.57831,5.0771 -3.68891,9.4594 -6.33063,13.1472 -9.68672,3.4059 -19.53579,4.6016 -29.54606,3.5857 -86.05558,-1.9912 -172.35005,-3.1868 -258.878659,-3.5857 -3.707347,-4.6874 -6.287611,-10.6632 -7.738242,-17.9273 -0.938404,-20.7175 -0.938404,-41.4327 0,-62.1502 2.383353,-6.8316 5.432239,-12.4073 9.145152,-16.7317 8.910204,0 17.821919,0 26.732119,0 68.00208,0 136.00509,0 204.00809,0 9.17531,0.7723 18.08621,-0.024 26.73154,-2.3901 z"
     fill="#be6c0d"
     id="path32"
     style="stroke-width:1.15967" />
  <path
     fill-rule="evenodd"
     clip-rule="evenodd"
     d="m 36.581072,1044.9374 c 8.645683,2.3657 17.555886,3.1624 26.732001,2.3901 8.441697,0 16.883394,0 25.325091,0 -3.712914,4.3244 -6.7618,9.9001 -9.145153,16.7317 -0.93852,20.7175 -0.93852,41.4327 0,62.1502 1.450515,7.2641 4.030895,13.2399 7.738242,17.9273 86.528957,0.3989 172.822267,1.5945 258.879007,3.5857 -112.08783,0.3989 -224.17567,0 -336.2612581,-1.1956 -3.9858878,-3.5857 -7.0347512,-8.7648 -9.14517537,-15.5373 -0.93843571,-23.1075 -0.93843571,-46.2128 0,-69.3204 2.34678797,-8.7601 6.33267577,-13.9404 11.95906647,-15.5372 7.959158,-1.1922 15.932349,-1.5922 23.918179,-1.1945 z"
     fill="#a86323"
     id="path34"
     style="stroke-width:1.15967" />
  <path
     d="m 93.199491,412.66252 c -1.927255,-2.54431 -2.446439,-4.15161 -1.5579,-4.8219 0.710877,-0.53693 1.402504,-0.36066 2.074764,0.52649 l 0.403333,0.53229 c 0.06007,0.14032 0.146119,0.28528 0.258143,0.43255 0.179285,0.23658 0.376544,0.34327 0.591895,0.32123 0.237732,0.006 0.549103,-0.13568 0.93423,-0.42676 2.517642,-1.89954 5.841604,-4.64099 9.971644,-8.22321 4.33033,-3.68659 7.65057,-6.40138 9.96098,-8.14552 0.82963,-0.62622 1.59617,-1.18054 2.30009,-1.66528 l 2.29847,-1.66645 c 0.9776,-0.73755 1.75921,-1.39624 2.34369,-1.97724 -0.3653,-0.23541 -0.68189,-0.53112 -0.95093,-0.88598 -0.51605,-0.68073 -0.41748,-1.2884 0.2934,-1.82532 0.35485,-0.26789 0.82336,-0.29572 1.4032,-0.0835 0.60302,0.24237 1.22113,0.65985 1.85547,1.25013 1.14807,1.08661 2.04681,2.05841 2.69739,2.9154 0.26904,0.35486 0.37457,0.74103 0.31659,1.15619 -0.0359,0.44532 -0.2157,0.7909 -0.54157,1.03675 -0.32587,0.24585 -0.68536,0.35486 -1.07965,0.32587 -0.3711,10e-4 -0.66913,-0.14612 -0.89295,-0.44184 -0.13452,-0.17743 -0.23193,-0.3363 -0.29223,-0.47662 l -0.26905,-0.35486 c -0.22381,-0.29572 -0.46618,-0.46155 -0.72595,-0.49866 -0.20874,-0.0278 -0.48938,0.0916 -0.8454,0.3595 -3.13922,2.3692 -7.31867,5.82618 -12.53672,10.3686 -5.50704,4.71406 -9.712,8.16639 -12.614766,10.35701 l -1.688362,1.27447 c 0.186474,0.18439 0.425366,0.46967 0.716675,0.85352 0.941188,1.24317 0.893409,2.25556 -0.143219,3.03718 l -0.266608,0.20178 -1.595705,-0.53925 c -0.02238,-0.0301 -0.10437,-0.10785 -0.246082,-0.23309 -0.112024,-0.14728 -0.336188,-0.443 -0.67226,-0.88715 -0.821162,-0.96136 -1.321327,-1.55975 -1.500612,-1.79633 z"
     fill="#000000"
     id="path44"
     style="stroke-width:1.15967" />
  <path
     d="m 106.97694,434.08973 c -0.72699,-1.0321 1.41155,-3.31201 6.41564,-6.83973 l 2.62538,-1.78357 2.12451,-1.42987 0.13684,-0.0962 0.45459,-0.32123 c 0.26441,-0.14032 0.56244,-0.32819 0.89643,-0.5636 0.0603,-0.0429 0.10437,-0.14148 0.13104,-0.29688 0.0267,-0.15539 0.0707,-0.25396 0.13104,-0.29687 l 0.0452,-0.0325 c -0.16699,-0.10901 -0.38965,-0.3595 -0.66797,-0.75379 -0.27832,-0.39428 -0.55896,-0.92309 -0.84424,-1.58526 -0.0974,-0.20295 -0.36414,-0.74103 -0.79901,-1.61542 l -5.23139,3.6889 c -0.78846,0.55549 -1.99985,1.47858 -3.63405,2.76697 -1.60383,1.26752 -2.81522,2.18946 -3.63406,2.76698 -0.45494,0.32006 -0.93469,0.47778 -1.43938,0.46966 -0.50469,-0.007 -0.89596,-0.20758 -1.17393,-0.60187 -0.40624,-0.57635 -0.13383,-1.38232 0.81722,-2.41559 0.98142,-1.0553 2.39703,-2.23584 4.24705,-3.54047 l 3.74898,-2.5072 c 1.05252,-0.69696 2.15502,-1.45075 3.30738,-2.26368 l 0.77338,-0.54504 0.63701,-0.44995 c 0.48474,-0.34211 0.79321,-0.581 0.92309,-0.719 l 0.2273,-0.16003 2.7345,-1.72443 c 1.15271,-0.81177 2.83423,-2.06653 5.04456,-3.76081 2.21033,-1.69544 3.89185,-2.94904 5.04456,-3.76197 0.36414,-0.25628 0.7677,-0.35949 1.21186,-0.30963 0.44415,0.051 0.79437,0.25745 1.05066,0.62158 0.6842,0.97065 0.11712,2.09785 -1.7024,3.38044 l -5.70557,3.88721 c -1.74066,1.13648 -3.6576,2.44227 -5.7508,3.91852 0.16931,0.56128 0.67029,1.43452 1.50409,2.61738 l 1.1875,1.68268 c 0.22498,-0.0673 0.42792,-0.16583 0.60999,-0.2934 1.45538,-1.0263 3.54511,-2.63593 6.26685,-4.82886 2.51996,-2.0932 4.61317,-3.7295 6.28077,-4.9054 0.33399,-0.23541 0.69232,-0.30615 1.07617,-0.21338 0.43488,0.10205 0.78046,0.33514 1.03675,0.69928 0.1496,0.21222 0.2876,0.56824 0.414,1.07037 l 0.10669,0.53693 c -4.30585,3.03718 -9.94648,7.24098 -16.92073,12.61256 l -11.22015,8.52589 c -0.42467,0.2992 -0.87579,0.36762 -1.35369,0.20526 -0.45644,-0.1322 -0.83426,-0.41052 -1.13369,-0.83496 z"
     fill="#000000"
     id="path46"
     style="stroke-width:1.15967" />
  <path
     d="m 138.70689,451.6564 c -1.66529,1.42176 -3.27723,2.50605 -4.83583,3.25288 -1.70355,0.91845 -3.70398,1.57715 -5.9978,1.97607 -0.88251,0.16815 -1.87867,0.11597 -2.98847,-0.15539 -1.08661,-0.24353 -1.88215,-0.66217 -2.38892,-1.25477 -0.0278,0.0244 -0.15772,0.15888 -0.38733,0.40473 -0.20178,0.22034 -0.49982,0.49982 -0.89411,0.83728 -0.84655,0.72363 -1.56439,1.14112 -2.15234,1.25244 -0.3653,-0.029 -0.66913,-0.18438 -0.91034,-0.46618 -0.0719,-0.0847 -0.15308,-0.23542 -0.24121,-0.45343 -0.14032,-0.2215 -0.17627,-0.43488 -0.10669,-0.64014 0.0928,-0.17743 0.25396,-0.38849 0.48358,-0.63318 0.0893,-0.12409 0.34442,-0.36762 0.7677,-0.72943 0.1983,-0.16816 0.4801,-0.40937 0.84656,-0.72248 0.39081,-0.28528 0.65869,-0.51489 0.80481,-0.68768 l -0.43372,-1.02051 c -0.24817,-0.52069 -0.41864,-0.86279 -0.51141,-1.02747 -0.53809,-0.85815 -0.62738,-1.73486 -0.26673,-2.62781 0.0406,-0.18091 0.1554,-0.64477 0.34559,-1.39392 0.21917,-0.77234 0.45807,-1.46466 0.71667,-2.07581 0.28644,-0.6355 0.61695,-1.16199 0.99268,-1.58063 2.69391,-3.1311 5.50727,-5.95026 8.44239,-8.45747 2.11524,-1.80792 4.16089,-3.38391 6.13581,-4.72913 4.13306,-2.70203 7.76979,-2.58722 10.90785,0.34442 0.31427,-0.31774 0.75379,-0.71783 1.31854,-1.20025 0.70508,-0.60187 1.24549,-0.94165 1.62006,-1.01703 0.40241,-0.0997 0.76075,0.0336 1.07386,0.40008 0.2644,0.31079 0.40936,0.65058 0.43255,1.02167 0.0232,0.36994 -0.0696,0.71784 -0.27948,1.0437 -0.14959,0.22498 -0.56012,0.60071 -1.23389,1.1272 -0.64825,0.55432 -1.01471,0.86743 -1.09936,0.93933 0.1322,-0.0151 0.31311,0.19599 0.54156,0.6355 0.2818,0.443 0.44996,0.81177 0.50562,1.10517 l 0.17859,1.23852 c 0.18323,1.01472 0.23077,1.75574 0.14148,2.22193 -0.0615,0.44299 -0.38037,1.15503 -0.95789,2.13611 -0.62158,1.21534 -1.547,2.44458 -2.77625,3.69123 -1.17822,1.24896 -2.71362,2.70783 -4.60852,4.37543 -0.93122,0.79553 -1.58179,1.37653 -1.95289,1.74183 z m -5.86329,0.24933 c 2.27295,-1.45306 3.94519,-2.63709 5.01673,-3.55322 0.64941,-0.55433 1.39856,-1.21998 2.24976,-1.9958 0.85003,-0.77465 1.48901,-1.36956 1.91693,-1.78357 l 1.36609,-1.3139 c 1.79401,-1.72791 3.15546,-3.30622 4.0832,-4.73261 0.87555,-1.43219 0.9057,-2.82496 0.0916,-4.17829 -0.44763,0.33282 -1.05182,0.82452 -1.81372,1.47626 l -9.94533,8.4969 c -2.72522,2.18133 -5.39826,4.39282 -8.02259,6.63446 -0.70508,0.60303 -1.85199,1.63166 -3.44074,3.08588 1.48902,0.4859 2.95368,0.42908 4.39515,-0.16815 1.90186,-0.74567 3.26911,-1.40088 4.10291,-1.96796 z m -10.39644,0.17047 c 3.95332,-3.08472 7.82081,-6.2425 11.60133,-9.47217 3.80952,-3.25404 7.54597,-6.59388 11.21053,-10.01723 -1.78125,-1.11328 -3.46393,-1.31158 -5.04688,-0.59375 -2.29963,1.13532 -4.25251,2.36341 -5.85633,3.68543 l -2.70203,2.23584 c -2.56751,2.19294 -4.64796,4.21424 -6.24018,6.06391 -1.44379,1.62354 -2.53504,3.11719 -3.27375,4.48097 -0.71552,1.3916 -0.61231,2.59765 0.30731,3.617 z"
     fill="#000000"
     id="path48"
     style="stroke-width:1.15967" />
  <path
     d="m 142.15342,478.22327 c -2.33673,-2.22889 -3.11951,-3.74573 -2.35181,-4.5517 0.61579,-0.64362 1.33942,-0.5694 2.1709,0.22497 l 0.443,0.42328 0.36413,0.42444 c 0.21454,0.20526 0.42676,0.27832 0.6355,0.2215 0.20874,-0.058 0.47895,-0.26093 0.81293,-0.60999 0.43488,-0.45575 1.08661,-1.1933 1.9552,-2.21149 0.53461,-0.72131 1.54236,-1.96564 3.02326,-3.73181 3.67731,-4.33949 6.51502,-7.55525 8.51313,-9.64961 0.71784,-0.75147 1.38465,-1.42408 2.00043,-2.01551 l 1.99927,-2.0155 c 0.8454,-0.88599 1.50989,-1.66297 1.99347,-2.33094 -0.53228,-0.30267 -0.89294,-0.54272 -1.08081,-0.72247 -0.64361,-0.61463 -0.65869,-1.24433 -0.0441,-1.8891 0.30731,-0.32239 0.77813,-0.41169 1.41131,-0.26905 0.63318,0.14264 1.30927,0.45459 2.02942,0.93702 1.27912,0.80944 2.33442,1.61194 3.16706,2.40631 0.32123,0.30731 0.47547,0.6842 0.45923,1.13068 0.0371,0.44531 -0.0858,0.81524 -0.36761,1.11096 -0.2818,0.29572 -0.61927,0.46039 -1.0124,0.49634 -0.36529,0.0615 -0.68304,-0.036 -0.95092,-0.29224 -0.1612,-0.15423 -0.28296,-0.29571 -0.36414,-0.42444 l -0.32239,-0.30847 c -0.26904,-0.25629 -0.53461,-0.38037 -0.79669,-0.37457 -0.2099,0.005 -0.46851,0.16815 -0.77582,0.49054 -2.48517,2.60462 -6.06391,6.67853 -10.73622,12.22175 -0.86859,1.01703 -2.11871,2.54316 -3.75153,4.57606 -1.0437,1.36377 -2.18134,2.68927 -3.41059,3.97766 l -1.46002,1.53077 c 0.18671,0.1264 0.46851,0.36993 0.84424,0.72827 1.1272,1.07617 1.24316,2.08392 0.34558,3.02326 l -0.22961,0.24237 -1.66065,-0.276 c -0.0267,-0.0255 -0.13336,-0.10205 -0.32007,-0.22962 -0.13452,-0.12756 -0.4024,-0.38385 -0.80481,-0.7677 -0.91034,-0.76654 -1.4867,-1.2652 -1.72791,-1.49597 z"
     fill="#000000"
     id="path50"
     style="stroke-width:1.15967" />
  <path
     d="m 174.99642,492.39675 c -0.13568,-0.0707 -0.36066,-0.16468 -0.67609,-0.28064 -0.31543,-0.11597 -0.5636,-0.27253 -0.74451,-0.46967 -0.45111,-0.49402 -0.51721,-1.15967 -0.19598,-1.99811 l 0.34674,-1.17591 c 0.6239,-1.90997 1.0553,-3.35144 1.29535,-4.3244 1.39276,-5.65687 2.74146,-11.3636 4.04493,-17.11904 0.72711,-2.95484 1.41015,-6.11146 2.04565,-9.47102 0.10669,-0.58563 0.35254,-1.04022 0.73871,-1.36609 0.42096,-0.31659 0.86628,-0.41748 1.33478,-0.30151 0.43256,0.10669 0.81641,0.41168 1.15155,0.91382 0.36994,0.51141 0.47083,1.03326 0.30152,1.56555 -0.51837,1.01819 -1.17707,3.14966 -1.97608,6.3921 l -1.06458,4.3244 c -0.19482,0.79206 -0.46966,2.0619 -0.82336,3.80952 0.14264,-0.11713 0.64941,-0.69928 1.51917,-1.74647 0.10785,-0.1264 0.28643,-0.31195 0.53808,-0.55548 0.25977,-0.27948 0.46619,-0.57287 0.61811,-0.88019 2.0758,-3.30969 3.73297,-5.84473 4.96802,-7.60395 0.58215,-0.96484 1.23157,-1.74066 1.95056,-2.32861 0.72596,-0.62391 1.59339,-0.96369 2.60114,-1.02167 0.35138,-0.0278 0.77466,0.11481 1.271,0.42792 0.53229,0.32238 0.85699,0.63202 0.97528,0.92773 0.15424,0.30615 0.18671,0.63898 0.0974,0.99964 -0.0881,0.35949 -0.29455,0.65289 -0.6181,0.87903 -0.28644,0.23541 -0.61926,0.34442 -0.99732,0.32818 -0.93585,-0.0789 -1.71863,0.0731 -2.34717,0.45343 -0.62854,0.37921 -1.14111,0.82685 -1.53424,1.34174 -0.35022,0.48706 -0.82452,1.24896 -1.42407,2.28571 l -3.46625,4.76392 c -0.17048,0.22614 -0.43836,0.6181 -0.80597,1.17822 -0.33051,0.56824 -0.62623,0.99152 -0.88715,1.27216 -0.0986,0.0905 -0.2331,0.17163 -0.40357,0.24353 -0.17047,0.0731 -0.32354,0.1496 -0.45807,0.23194 0.29688,-0.11829 0.60767,0.0151 0.93238,0.40124 0.36181,0.39545 0.69696,0.89759 1.00427,1.50873 0.14612,0.6471 0.18903,1.32666 0.12873,2.0387 -0.0244,0.72015 -0.0325,1.13879 -0.022,1.25476 -0.0707,0.59491 -0.10437,1.04486 -0.10437,1.35102 0.14844,1.2594 0.19367,2.39819 0.13336,3.41522 -0.0499,0.98108 -0.19946,2.12916 -0.44647,3.44422 -0.21106,1.32318 -0.13104,2.54779 0.24237,3.67151 0.17047,0.08 0.36066,0.16468 0.56708,0.25397 0.24353,0.0986 0.50562,0.20178 0.7851,0.30847 0.56707,0.17743 0.85699,0.63202 0.86859,1.3603 0.0174,0.0812 0.005,0.21221 -0.0394,0.39196 -0.0974,0.39661 -0.37109,0.7306 -0.81989,1.00196 -0.67376,0.40704 -1.42523,0.50909 -2.25323,0.30499 -0.61347,-0.15192 -1.16779,-0.46039 -1.66413,-0.92658 -0.46039,-0.4569 -0.75031,-0.98687 -0.86975,-1.5899 -0.12757,-0.414 -0.18787,-0.94397 -0.18091,-1.59223 0.12988,-1.61194 0.29919,-3.232 0.50909,-4.86249 0.39777,-2.23352 0.64362,-3.93128 0.73871,-5.09211 0.14032,-1.18866 0.0684,-2.37152 -0.21453,-3.54975 -0.0823,-0.28759 -0.18207,-0.50329 -0.2992,-0.64709 -0.10901,-0.17975 -0.28876,-0.30036 -0.54157,-0.36298 -0.21569,-0.0533 -0.49981,-0.0661 -0.85003,-0.0371 -0.71088,2.57563 -1.36841,5.08979 -1.9726,7.54017 -0.38153,1.54932 -0.89063,3.92664 -1.52728,7.13313 -0.0615,0.40472 -0.21338,0.71203 -0.45575,0.91962 -0.19831,0.1809 -0.53925,0.4024 -1.02399,0.66449 z"
     fill="#000000"
     id="path52"
     style="stroke-width:1.15967" />
  <path
     d="m 216.54505,492.35036 c -0.94861,0.17395 -1.88214,0.0243 -2.79944,-0.44879 -0.90918,-0.4372 -1.71399,-1.11908 -2.41211,-2.04798 -1.46699,-2.03174 -2.56983,-4.33832 -3.30738,-6.91975 -0.78394,-2.42139 -1.38581,-4.78247 -1.80793,-7.0821 -0.0812,-0.43835 -0.12988,-0.80597 -0.14611,-1.10516 l -0.18091,-0.98572 c -0.0336,-0.18207 -0.0684,-0.2702 -0.10553,-0.26324 l -0.18091,-0.98572 -0.64826,-3.84199 c -0.17743,-1.17474 -0.37225,-3.06384 -0.58563,-5.66498 -0.13916,-1.78589 -0.0313,-3.56019 0.32471,-5.32288 0.12176,-0.77698 0.35022,-1.38465 0.6842,-1.82416 0.32819,-0.47431 0.74683,-0.75959 1.25824,-0.85236 1.46003,-0.26789 2.8238,-0.23541 4.09248,0.0974 1.26172,0.29688 2.38196,0.8454 3.3584,1.64789 0.89758,0.77814 1.72559,1.79633 2.48401,3.05225 0.75263,1.22113 1.37537,2.55939 1.86823,4.01478 0.50098,1.49365 0.90802,3.09747 1.22345,4.81262 l 0.08,0.43836 c 0.20758,1.13184 0.41284,2.15003 0.61694,3.05573 l 0.62738,3.11139 c 1.92853,10.51124 0.44647,16.21682 -4.44385,17.1144 z m -0.6413,-2.2602 c 0.65753,-0.1206 1.21302,-0.4859 1.66645,-1.09704 0.44647,-0.64826 0.73291,-1.45539 0.85699,-2.42139 0.35254,-1.98884 0.40357,-4.07392 0.1554,-6.2541 -0.16004,-1.8949 -0.36298,-3.51728 -0.61115,-4.86829 -0.30035,-1.64209 -0.82336,-3.77241 -1.56787,-6.38978 -0.73407,-2.77045 -1.22925,-4.84974 -1.48322,-6.2367 l -0.18091,-0.98456 c -0.32702,-1.37421 -1.02282,-2.49213 -2.08624,-3.3526 -1.02747,-0.8686 -2.16162,-1.18866 -3.40247,-0.96021 -1.24085,0.2273 -1.93201,1.09009 -2.07233,2.58722 -0.15656,1.19794 -0.0719,2.69159 0.25629,4.4798 0.12756,0.69349 0.2528,1.27448 0.37689,1.74183 l 0.2702,1.47858 0.35254,2.53851 c 0.0684,0.78046 0.18555,1.62702 0.35254,2.53852 0.36182,1.97144 0.77466,3.91388 1.23969,5.8285 0.64825,2.7113 1.50177,5.30896 2.56055,7.79297 1.07965,2.59418 2.18597,3.78632 3.31665,3.57874 z"
     fill="#000000"
     id="path54"
     style="stroke-width:1.15967" />
  <path
     d="m 241.45359,478.77063 c -0.69233,0.43256 -1.30347,0.39893 -1.8346,-0.10089 -0.36182,-0.29919 -0.75842,-0.79553 -1.19098,-1.48786 -0.8454,-1.35333 -1.82416,-3.06036 -2.93628,-5.12225 -1.02283,-1.98768 -1.99579,-3.72022 -2.91889,-5.19996 -1.04138,-1.66761 -2.55707,-4.20032 -4.54591,-7.59584 l -4.56445,-7.51813 c -0.17627,-0.28412 -0.48938,-0.67957 -0.93702,-1.18634 l -0.87903,-1.09241 -0.14727,-0.23657 c -0.45227,-0.72364 -0.67609,-1.32783 -0.67261,-1.81141 0.005,-0.48358 0.30615,-0.91266 0.90338,-1.28607 0.81873,-0.51142 1.86359,-0.83496 3.13343,-0.9718 1.27099,-0.138 2.35181,0.0174 3.24475,0.46618 1.85663,0.94165 3.49177,2.54432 4.90772,4.81147 1.0611,1.69892 1.81372,3.2204 2.25788,4.56214 0.42444,1.30927 0.59491,2.6684 0.51141,4.0774 1.36145,0.2876 2.58607,0.98804 3.67499,2.10132 1.10053,1.06225 2.25092,2.55359 3.45002,4.474 1.1991,1.92041 1.90998,3.79444 2.13379,5.6244 0.24701,2.07697 -0.16699,3.86634 -1.24084,5.36927 -0.68537,0.86511 -1.46815,1.57251 -2.34949,2.12335 z m -9.78065,-19.02669 c 1.61657,-1.05414 1.24548,-3.46973 -1.11213,-7.24678 -2.53619,-4.06116 -4.50763,-5.78211 -5.91663,-5.16516 0.10553,0.94049 0.99384,2.74841 2.66492,5.42377 z m 9.50464,15.85152 c 0.86976,-0.84888 1.2826,-1.93897 1.24085,-3.26795 -0.0429,-1.33014 -0.45807,-2.62433 -1.24432,-3.88373 -0.82569,-1.32203 -1.63166,-2.43763 -2.41791,-3.34565 -0.61695,-0.70856 -1.1933,-1.24548 -1.72791,-1.61194 -0.52301,-0.41748 -1.09473,-0.73755 -1.71631,-0.96253 -0.67261,-0.23657 -1.28955,-0.24469 -1.85315,-0.0244 0.99499,1.87287 2.41559,4.28846 4.2641,7.24793 0.11713,0.18903 0.45923,0.80597 1.02515,1.85316 l 0.90802,1.66412 c 0.0394,0.0626 0.0846,0.0997 0.13568,0.11249 l 0.0591,0.0939 z"
     fill="#000000"
     id="path56"
     style="stroke-width:1.15967" />
  <path
     d="m 269.03864,450.88986 c -0.55432,0.64942 -1.06226,1.04486 -1.52497,1.1875 -0.46154,0.14148 -0.96136,-0.0162 -1.49829,-0.47314 -0.84656,-0.72248 -2.40747,-1.81025 -4.68042,-3.26099 l -1.03443,-0.58911 -4.21076,3.65064 c 0.50446,0.72363 1.6131,2.08392 3.32477,4.07971 1.23853,1.34986 1.92737,2.40052 2.06653,3.15314 0.0858,0.414 -0.0278,0.80481 -0.34094,1.17243 -0.28876,0.33862 -0.65289,0.56476 -1.09125,0.67841 -0.46734,0.0893 -0.85583,0.002 -1.16546,-0.26325 l -0.14032,-0.2644 -0.13337,-0.18787 c -5.66614,-8.05274 -11.61988,-15.56856 -17.8589,-22.54977 -0.11365,-0.0962 -0.28528,-0.26672 -0.5149,-0.51257 -0.2586,-0.26905 -0.6297,-0.63434 -1.11328,-1.09589 -0.97296,-0.97528 -1.7337,-1.77082 -2.28223,-2.38544 -0.52533,-0.64246 -0.84656,-1.20954 -0.96368,-1.70008 l 1.22809,-1.44031 c 0.3363,-0.39544 0.72479,-0.64941 1.16314,-0.76306 0.40937,-0.138 0.78394,-0.0626 1.12256,0.22614 2.14655,1.82996 5.58961,4.25482 10.33034,7.2746 4.82886,3.14387 8.11884,5.4632 9.86994,6.9557 0.16932,0.14496 0.66681,0.44763 1.49366,0.90802 0.77002,0.41284 1.2536,0.70392 1.45074,0.87207 0.19831,0.16815 1.16547,0.75031 2.90266,1.74414 1.57135,0.90223 2.55475,1.52149 2.9502,1.85779 l 0.0429,0.0371 c 0.62043,0.52997 0.82337,1.09241 0.60767,1.68848 z m -10.51472,-4.14002 c -0.49634,-0.27716 -1.05414,-0.67956 -1.67572,-1.20953 -2.54084,-2.16742 -5.98042,-4.71174 -10.31874,-7.63063 l -4.76508,-3.33405 c 5.59888,6.87452 9.90009,11.98171 12.90248,15.32387 0.64361,-0.18322 1.92969,-1.23272 3.85706,-3.14966 z"
     fill="#000000"
     id="path58"
     style="stroke-width:1.15967" />
  <path
     d="m 287.18283,426.0741 c -0.52765,1.14691 -3.57295,0.43951 -9.13472,-2.12104 l -2.85858,-1.37652 -2.30311,-1.1214 -0.15191,-0.0696 -0.50562,-0.2331 c -0.25397,-0.15771 -0.56592,-0.32239 -0.93701,-0.49286 -0.0673,-0.0313 -0.17511,-0.0197 -0.32239,0.0348 -0.14844,0.0557 -0.25513,0.0673 -0.32355,0.036 l -0.0499,-0.0232 c -0.0104,0.19946 -0.11597,0.51837 -0.31775,0.95673 -0.20179,0.43835 -0.51722,0.94629 -0.94745,1.52496 -0.12641,0.18671 -0.45923,0.68769 -0.99732,1.50177 l 5.81458,2.67652 c 0.87671,0.40356 2.28223,0.9892 4.21656,1.7569 1.9007,0.75262 3.30622,1.33826 4.21656,1.7569 0.50561,0.23309 0.88135,0.5694 1.12836,1.01007 0.24701,0.43951 0.26904,0.87903 0.0673,1.31738 -0.29456,0.64014 -1.1272,0.80829 -2.49909,0.50446 -1.40552,-0.32007 -3.13575,-0.95325 -5.19184,-1.89954 l -4.04957,-1.98651 c -1.13067,-0.56128 -2.33673,-1.13648 -3.617,-1.72675 l -0.85932,-0.39545 -0.70856,-0.32586 c -0.53924,-0.24817 -0.90106,-0.39429 -1.08545,-0.43836 l -0.2528,-0.11597 -2.86207,-1.50177 c -1.28143,-0.59027 -3.2088,-1.41595 -5.78443,-2.47821 -2.57447,-1.06342 -4.50184,-1.8891 -5.78327,-2.47821 -0.40472,-0.18671 -0.6958,-0.48475 -0.87555,-0.89411 -0.17975,-0.40936 -0.17627,-0.81641 0.0104,-1.21997 0.49634,-1.07965 1.75574,-1.15271 3.7782,-0.22266 l 6.22394,2.98731 c 1.85663,0.93701 3.94752,1.94013 6.27382,3.0105 0.40124,-0.42792 0.90454,-1.29883 1.50873,-2.61389 l 0.86163,-1.87055 c -0.17163,-0.16119 -0.35834,-0.2876 -0.56012,-0.38037 -1.6189,-0.74567 -4.05884,-1.7453 -7.31983,-3.00238 -3.07545,-1.12952 -5.53974,-2.12104 -7.39406,-2.97456 -0.37109,-0.17047 -0.6123,-0.44415 -0.72363,-0.82336 -0.12988,-0.42676 -0.10205,-0.84308 0.0835,-1.24781 0.10901,-0.23541 0.34906,-0.5346 0.71899,-0.89526 l 0.41169,-0.36182 c 4.78595,2.20337 11.25227,4.97498 19.39662,8.31599 l 13.00222,5.43305 c 0.47198,0.21686 0.75726,0.57288 0.85583,1.06806 0.11481,0.46155 0.0638,0.92773 -0.15307,1.39972 z"
     fill="#000000"
     id="path60"
     style="stroke-width:1.15967" />
  <path
     d="m 294.29276,399.07468 c -0.22846,0.93701 -0.74451,1.72906 -1.55048,2.37384 -0.76886,0.65289 -1.71979,1.1098 -2.85163,1.36957 -2.45386,0.51141 -5.00977,0.57868 -7.66773,0.20178 -2.5304,-0.27136 -4.93207,-0.68188 -7.20387,-1.23389 -0.43371,-0.10437 -0.78973,-0.2099 -1.06921,-0.31658 l -0.97412,-0.23542 c -0.17975,-0.0441 -0.27484,-0.0475 -0.28296,-0.0116 l -0.97412,-0.23658 -3.77357,-0.97296 c -1.14459,-0.31659 -2.94904,-0.90686 -5.41218,-1.77197 -1.68731,-0.60071 -3.2633,-1.42176 -4.72913,-2.4643 -0.65985,-0.42792 -1.12256,-0.88367 -1.38696,-1.36841 -0.30036,-0.49286 -0.38849,-0.99152 -0.26672,-1.49597 0.35022,-1.44263 0.93585,-2.67536 1.75689,-3.69819 0.7851,-1.03211 1.74183,-1.82996 2.8725,-2.39588 1.07618,-0.50329 2.34254,-0.84424 3.80024,-1.02514 1.4206,-0.19019 2.8957,-0.21454 4.42762,-0.0719 1.56671,0.15191 3.19837,0.43255 4.89264,0.84424 l 0.43256,0.10437 c 1.11792,0.27136 2.13263,0.49865 3.04297,0.68188 l 3.09632,0.69348 c 10.386,2.52112 14.99336,6.19728 13.82094,11.02962 z m -2.32514,-0.33515 c 0.15772,-0.64941 0.0499,-1.30578 -0.32355,-1.96911 -0.41052,-0.67145 -1.03094,-1.26173 -1.86243,-1.7685 -1.6734,-1.13184 -3.55554,-2.02826 -5.64874,-2.68811 -1.79517,-0.62739 -3.35957,-1.10285 -4.69435,-1.4264 -1.62237,-0.39313 -3.78168,-0.78393 -6.47559,-1.1701 -2.82843,-0.45807 -4.92859,-0.85236 -6.29932,-1.18519 l -0.97297,-0.23657 c -1.38812,-0.25976 -2.69159,-0.08 -3.91156,0.54041 -1.21185,0.58447 -1.96564,1.49017 -2.26251,2.71594 -0.29804,1.22577 0.20874,2.20801 1.51916,2.94672 1.02979,0.63086 2.42835,1.16199 4.19569,1.59107 0.68536,0.16583 1.26635,0.2876 1.74414,0.3653 l 1.46002,0.35485 2.46314,0.71204 c 0.73987,0.25513 1.55975,0.49286 2.46198,0.71204 1.94708,0.47198 3.88953,0.88599 5.82734,1.242 2.73913,0.51258 5.45972,0.7909 8.15943,0.83497 2.80872,0.0707 4.34876,-0.45344 4.62012,-1.57136 z"
     fill="#000000"
     id="path62"
     style="stroke-width:1.15967" />
  <g
     filter="url(#filter0_d_139_2750)"
     id="g68"
     transform="scale(1.1596693)" />
  <path
     d="m 252.79283,22.300905 c -3.27838,0.756568 -5.35071,3.008182 -5.86097,6.322517 -0.16931,1.188893 -0.23773,1.332924 -0.56012,1.332924 -0.2041,0 -3.26215,0.288177 -6.7945,0.630512 -3.55091,0.342218 -7.66193,0.702411 -9.13935,0.792518 -3.12647,0.198187 -3.24476,0.252228 -3.05805,1.585152 l 0.10205,0.774543 -1.15503,-0.486365 c -1.95404,-0.792519 -5.70789,-1.999386 -7.55988,-2.431711 -2.58259,-0.576472 -6.55677,-0.594447 -8.1374,0 -2.37733,0.864649 -3.73646,2.683939 -4.12727,5.475842 -0.64593,4.737481 2.61622,12.663125 8.27308,20.138354 1.59687,2.107583 4.94251,5.63808 6.84553,7.241207 1.54584,1.314949 1.71631,1.513136 1.64789,1.945345 -0.0847,0.41435 0.051,0.576472 1.15503,1.459096 6.8119,5.439893 14.43904,9.798974 20.21536,11.582197 6.55677,2.017477 11.94227,1.78334 16.63082,-0.720502 8.01795,-4.268975 14.0146,-16.247547 14.69416,-29.342881 0.30616,-6.268476 -1.29071,-12.825131 -4.12842,-16.787953 -0.42444,-0.576355 -1.07037,-1.549086 -1.42639,-2.161507 -3.00702,-4.953528 -11.90865,-8.664237 -17.61654,-7.349288 z m 4.82423,1.621217 c 3.3642,0.630396 6.93134,2.269589 9.41187,4.359081 1.35914,1.134737 1.69892,1.639193 0.98456,1.42303 -0.22034,-0.05404 -0.98456,-0.162121 -1.71515,-0.216162 -1.18982,-0.108081 -1.41016,-0.198187 -2.0213,-0.720502 -2.36109,-2.107583 -7.89967,-3.314451 -10.71999,-2.341721 -1.17126,0.41435 -2.36108,1.459096 -2.7171,2.413736 -0.25513,0.702528 -0.28876,0.702528 -1.3429,0.810609 -0.57751,0.05404 -1.08661,0.08999 -1.104,0.07201 -0.11829,-0.144147 0.39081,-2.161507 0.71319,-2.827969 0.4256,-0.900715 1.42756,-1.963436 2.31122,-2.431827 1.39277,-0.774543 3.78748,-0.972614 6.1996,-0.54029 z m 0.74798,3.872716 c 1.35914,0.234137 3.14271,0.846558 3.38044,1.152827 0.15308,0.198188 -0.66217,0.252228 -4.51923,0.324244 -2.59882,0.05404 -4.75581,0.07202 -4.78944,0.03595 -0.11944,-0.107965 0.56012,-0.810492 1.03559,-1.080695 1.08777,-0.594447 2.9386,-0.756569 4.89264,-0.432325 z m 8.74855,3.512522 c 1.44379,0.180097 2.36109,0.396259 2.63361,0.612422 0.6958,0.50434 2.31006,3.224344 3.04065,5.061608 1.10401,2.846061 1.71515,6.12433 1.71515,9.240593 0,1.386965 -0.0174,1.42303 -0.37341,1.314949 -0.2215,-0.07213 -1.30811,-0.288294 -2.42951,-0.522431 -1.86823,-0.360193 -2.56519,-0.396259 -8.23829,-0.396259 -3.80603,0 -7.11805,0.09011 -8.57923,0.234137 -2.78553,0.270203 -14.66054,1.603127 -16.12173,1.801315 -1.12024,0.144147 -1.40899,0.432324 -1.22229,1.206868 l 0.11829,0.50434 1.47858,-0.108081 c 0.81524,-0.07202 3.95795,-0.396259 6.9986,-0.756569 11.10963,-1.260908 17.27675,-1.603127 22.08358,-1.188777 2.49677,0.216163 5.72529,0.810609 6.01405,1.098787 0.25397,0.252112 -0.32355,4.485137 -0.9173,6.844832 -0.13568,0.540406 -0.37457,0.774543 -1.47858,1.495046 -2.7171,1.729299 -5.75892,3.008182 -7.13428,3.008182 -1.01935,0 -6.03028,-0.594447 -9.0547,-1.080812 -4.65491,-0.756452 -10.44746,-1.96332 -15.67989,-3.260294 -1.56207,-0.378284 -2.98963,-0.702528 -3.17633,-0.702528 -0.45807,0 -0.76423,0.648487 -0.54389,1.152827 0.18787,0.4503 1.15619,0.720503 8.86799,2.557883 7.30476,1.729183 13.28401,2.755954 17.83688,3.044132 2.44574,0.162122 3.56714,-0.144147 6.79566,-1.819289 1.409,-0.720503 2.59882,-1.332924 2.63245,-1.332924 0.15307,0 -1.07038,3.080197 -2.12336,5.313721 -1.37652,2.954141 -3.17633,5.926258 -4.53546,7.475344 -1.10401,1.278883 -2.42951,2.071517 -4.11103,2.449801 -1.49482,0.324244 -5.02833,0.324244 -7.20271,-0.01809 -5.23243,-0.828583 -12.26466,-3.368375 -18.2961,-6.610694 -1.6305,-0.864534 -3.05689,-1.585152 -3.17633,-1.585152 -0.35718,0 -0.78162,0.846674 -0.59492,1.188893 0.40821,0.756568 7.016,4.341106 10.73622,5.800086 6.40486,2.539907 11.90865,3.3504 17.66757,2.647988 0.76422,-0.09011 0.74682,-0.09011 -0.59492,0.612422 -2.15698,1.116761 -3.66919,1.495045 -6.65882,1.585152 -1.58063,0.05404 -3.1427,0.01797 -3.99274,-0.108081 -4.45081,-0.684553 -9.68208,-2.774045 -14.9145,-5.944233 -2.46314,-1.495162 -6.6252,-4.305157 -6.6252,-4.467278 0,-0.05404 0.42444,-0.864534 0.9347,-1.81929 5.09559,-9.600786 5.94562,-15.635125 4.07624,-29.559042 -0.23774,-1.81929 -0.42444,-3.314335 -0.39081,-3.33231 0.0348,-0.01809 1.51221,-0.180213 3.27954,-0.342335 1.78357,-0.162121 5.70673,-0.54029 8.74855,-0.846558 3.04065,-0.288178 6.67505,-0.612422 8.06898,-0.702528 3.78748,-0.252112 11.78919,-0.108081 14.43904,0.252227 z m -48.8731,1.152827 c 2.12335,0.468275 5.04572,1.40494 7.57612,2.413736 l 1.88562,0.756452 0.10205,0.900716 c 0.051,0.50434 0.0846,0.918574 0.0684,0.954639 -0.0174,0.01797 -1.22345,-0.450299 -2.68464,-1.044746 -1.46118,-0.594446 -3.70282,-1.386964 -4.99353,-1.729183 -2.88874,-0.810608 -5.58961,-0.936664 -7.16908,-0.360309 -3.3468,1.224843 -3.58454,5.475959 -0.66217,11.528273 1.10401,2.269589 3.38044,5.908167 5.31709,8.447959 1.54583,2.035451 4.85785,5.69212 6.26801,6.934938 l 0.84888,0.738593 -0.32239,0.720503 c -0.17047,0.414234 -0.37342,0.738477 -0.44184,0.738477 -0.32238,0 -2.95599,-2.395644 -4.84162,-4.395146 -4.72217,-5.025543 -8.64649,-11.420076 -10.37904,-16.914009 -0.59491,-1.909396 -0.62854,-2.143533 -0.64593,-4.359081 0,-1.945461 0.051,-2.449801 0.32355,-2.972116 0.6958,-1.387081 1.78357,-2.215665 3.49872,-2.647873 1.25708,-0.306269 4.06,-0.180213 6.25178,0.288177 z m 13.06367,3.440391 c 1.18866,8.826359 1.29071,13.365537 0.39081,17.958871 -0.67957,3.440391 -2.15815,7.349172 -4.26411,11.257954 l -0.86627,1.585152 -0.69696,-0.576356 c -0.39081,-0.306269 -0.74683,-0.594446 -0.78162,-0.630512 -0.0336,-0.01798 0.40821,-1.098787 0.98572,-2.395645 2.19178,-4.863537 3.49988,-9.294633 3.92432,-13.18544 0.39081,-3.494547 0.051,-9.762908 -0.83264,-15.761181 -0.13568,-0.91869 -0.11945,-0.936781 0.30615,-1.008797 0.23774,-0.05404 0.66217,-0.07202 0.95093,-0.05404 l 0.5091,0.01809 z m -12.77492,0.108082 c 1.64789,0.324243 5.24867,1.585152 7.7292,2.683938 2.12335,0.95464 1.91925,0.540406 2.2254,4.503228 0.44184,5.728071 -0.25512,10.39342 -2.34369,15.689166 l -0.59491,1.513021 -0.71319,-0.576356 c -1.24085,-1.044746 -4.26411,-4.395147 -5.92939,-6.574745 -3.07429,-4.034838 -5.62208,-8.610081 -6.5904,-11.8524 -0.51026,-1.675143 -0.52765,-3.386351 -0.0684,-4.233025 0.84887,-1.513021 2.70087,-1.855355 6.2854,-1.152827 z"
     fill="#ffffff"
     id="path70"
     style="stroke-width:1.15967" />
  <path
     d="m 234.34713,61.893058 c -0.2041,0.162122 -0.28876,0.414234 -0.23773,0.756569 0.051,0.50434 0.18671,0.594446 2.17438,1.458979 10.10768,4.359081 19.99386,6.790908 25.29471,6.214436 1.95288,-0.216162 3.8559,-0.900599 4.62012,-1.657167 0.49286,-0.486365 0.50909,-0.558381 0.27136,-0.936665 -0.33978,-0.540406 -0.73059,-0.594446 -1.46002,-0.162122 -1.52961,0.882625 -2.31122,1.026771 -5.53858,1.008681 -2.42951,0 -3.48249,-0.08999 -5.09559,-0.396259 -4.73957,-0.95464 -10.43122,-2.755954 -16.54616,-5.241706 -1.71631,-0.702527 -3.1427,-1.278883 -3.1601,-1.278883 -0.0174,0 -0.15308,0.108081 -0.32239,0.234137 z"
     fill="#ffffff"
     id="path72"
     style="stroke-width:1.15967" />
  <defs
     id="defs99">
    <filter
       id="filter0_d_139_2750"
       x="78.584"
       y="3.0952101"
       width="236.41701"
       height="89.9048"
       filterUnits="userSpaceOnUse"
       color-interpolation-filters="sRGB">
      <feFlood
         flood-opacity="0"
         result="BackgroundImageFix"
         id="feFlood82" />
      <feColorMatrix
         in="SourceAlpha"
         type="matrix"
         values="0 0 0 0 0 0 0 0 0 0 0 0 0 0 0 0 0 0 127 0"
         result="hardAlpha"
         id="feColorMatrix84" />
      <feOffset
         dy="4"
         id="feOffset86" />
      <feGaussianBlur
         stdDeviation="2"
         id="feGaussianBlur88" />
      <feComposite
         in2="hardAlpha"
         operator="out"
         id="feComposite90" />
      <feColorMatrix
         type="matrix"
         values="0 0 0 0 0 0 0 0 0 0 0 0 0 0 0 0 0 0 0.25 0"
         id="feColorMatrix92" />
      <feBlend
         mode="normal"
         in2="BackgroundImageFix"
         result="effect1_dropShadow_139_2750"
         id="feBlend94" />
      <feBlend
         mode="normal"
         in="SourceGraphic"
         in2="effect1_dropShadow_139_2750"
         result="shape"
         id="feBlend96" />
    </filter>
  </defs>
  <text
     xml:space="preserve"
     style="font-size:56.4207px;line-height:1.25;font-family:EchoRevival;-inkscape-font-specification:EchoRevival;fill:#a61e1e;fill-opacity:1;stroke-width:1.41052"
     x="53.930275"
     y="285.00311"
     id="text932"><tspan
       sodipodi:role="line"
       id="tspan930"
       x="53.930275"
       y="285.00311"
       style="font-style:normal;font-variant:normal;font-weight:normal;font-stretch:normal;font-family:'Amatic SC';-inkscape-font-specification:'Amatic SC';fill:#a61e1e;fill-opacity:1;stroke-width:1.41052">41 342 млн. осіб</tspan></text>
  <text
     id="text936"
     y="679.29645"
     x="125.49065"
     style="font-size:56.4207px;line-height:1.25;font-family:EchoRevival;-inkscape-font-specification:EchoRevival;fill:#a61e1e;fill-opacity:1;stroke-width:1.41052"
     xml:space="preserve"><tspan
       style="font-style:normal;font-variant:normal;font-weight:normal;font-stretch:normal;font-family:'Amatic SC';-inkscape-font-specification:'Amatic SC';fill:#a61e1e;fill-opacity:1;stroke-width:1.41052"
       y="679.29645"
       x="125.49065"
       id="tspan934"
       sodipodi:role="line">3 263 417</tspan></text>
  <text
     xml:space="preserve"
     style="font-size:40.828px;line-height:1.25;font-family:EchoRevival;-inkscape-font-specification:EchoRevival;fill:#a61e1e;fill-opacity:1;stroke-width:1.0207"
     x="91.84346"
     y="876.24573"
     id="text940"><tspan
       sodipodi:role="line"
       id="tspan938"
       x="91.84346"
       y="876.24573"
       style="font-style:normal;font-variant:normal;font-weight:normal;font-stretch:normal;font-family:'Amatic SC';-inkscape-font-specification:'Amatic SC';fill:#a61e1e;fill-opacity:1;stroke-width:1.0207">500 079 тис. осіб</tspan></text>
  <text
     id="text944"
     y="1030.5645"
     x="89.037666"
     style="font-size:40.828px;line-height:1.25;font-family:EchoRevival;-inkscape-font-specification:EchoRevival;fill:#a61e1e;fill-opacity:1;stroke-width:1.0207"
     xml:space="preserve"><tspan
       style="font-style:normal;font-variant:normal;font-weight:normal;font-stretch:normal;font-family:'Amatic SC';-inkscape-font-specification:'Amatic SC';fill:#a61e1e;fill-opacity:1;stroke-width:1.0207"
       y="1030.5645"
       x="89.037666"
       id="tspan942"
       sodipodi:role="line">78 754 тис. осіб</tspan></text>
  <text
     id="text886"
     y="353.00311"
     x="53.930275"
     style="font-size:56.4207px;line-height:1.25;font-family:EchoRevival;-inkscape-font-specification:EchoRevival;fill:#a61e1e;fill-opacity:1;stroke-width:1.41052"
     xml:space="preserve"><tspan
       style="font-style:normal;font-variant:normal;font-weight:normal;font-stretch:normal;font-family:'Amatic SC';-inkscape-font-specification:'Amatic SC';fill:#a61e1e;fill-opacity:1;stroke-width:1.41052"
       y="353.00311"
       x="53.930275"
       id="tspan884"
       sodipodi:role="line">разом з Кримом</tspan></text>
  <text
     xml:space="preserve"
     style="font-size:83.8253px;line-height:1.25;font-family:EchoRevival;-inkscape-font-specification:EchoRevival;fill:#000000;fill-opacity:1;stroke-width:2.09563"
     x="73.638489"
     y="211.64316"
     id="text890"><tspan
       sodipodi:role="line"
       id="tspan888"
       x="73.638489"
       y="211.64316"
       style="font-style:normal;font-variant:normal;font-weight:normal;font-stretch:normal;font-family:'Amatic SC';-inkscape-font-specification:'Amatic SC';fill:#000000;fill-opacity:1;stroke-width:2.09563">Населення</tspan></text>
  <text
     id="text894"
     y="52.415756"
     x="93.694267"
     style="font-size:42.6252px;line-height:1.25;font-family:EchoRevival;-inkscape-font-specification:EchoRevival;fill:#ffffff;fill-opacity:1;stroke-width:1.06563"
     xml:space="preserve"><tspan
       style="font-style:normal;font-variant:normal;font-weight:normal;font-stretch:normal;font-family:'Amatic SC';-inkscape-font-specification:'Amatic SC';fill:#ffffff;fill-opacity:1;stroke-width:1.06563"
       y="52.415756"
       x="93.694267"
       id="tspan892"
       sodipodi:role="line">Corona</tspan></text>
  <text
     xml:space="preserve"
     style="font-size:42.6252px;line-height:1.25;font-family:EchoRevival;-inkscape-font-specification:EchoRevival;fill:#ffffff;fill-opacity:1;stroke-width:1.06563"
     x="110.14875"
     y="88.707924"
     id="text898"><tspan
       sodipodi:role="line"
       id="tspan896"
       x="110.14875"
       y="88.707924"
       style="font-style:normal;font-variant:normal;font-weight:normal;font-stretch:normal;font-family:'Amatic SC';-inkscape-font-specification:'Amatic SC';fill:#ffffff;fill-opacity:1;stroke-width:1.06563">Ukraine</tspan></text>
  <text
     id="text902"
     y="601.7019"
     x="96.389023"
     style="font-size:73.2253px;line-height:1.25;font-family:EchoRevival;-inkscape-font-specification:EchoRevival;fill:#000000;fill-opacity:1;stroke-width:1.83064"
     xml:space="preserve"><tspan
       style="font-style:normal;font-variant:normal;font-weight:normal;font-stretch:normal;font-family:'Amatic SC';-inkscape-font-specification:'Amatic SC';fill:#000000;fill-opacity:1;stroke-width:1.83064"
       y="601.7019"
       x="96.389023"
       id="tspan900"
       sodipodi:role="line">Covid-19</tspan></text>
  <text
     xml:space="preserve"
     style="font-size:55.9849px;line-height:1.25;font-family:EchoRevival;-inkscape-font-specification:EchoRevival;fill:#a61e1e;fill-opacity:1;stroke-width:1.39962"
     x="118.67304"
     y="731.3194"
     id="text906"><tspan
       sodipodi:role="line"
       id="tspan904"
       x="118.67304"
       y="731.3194"
       style="font-style:normal;font-variant:normal;font-weight:normal;font-stretch:normal;font-family:'Amatic SC';-inkscape-font-specification:'Amatic SC';fill:#a61e1e;fill-opacity:1;stroke-width:1.39962">млн.осіб</tspan></text>
  <text
     id="text910"
     y="829.97723"
     x="122.0947"
     style="font-size:55.9849px;line-height:1.25;font-family:EchoRevival;-inkscape-font-specification:EchoRevival;fill:#000000;fill-opacity:1;stroke-width:1.39962"
     xml:space="preserve"><tspan
       style="font-style:normal;font-variant:normal;font-weight:normal;font-stretch:normal;font-family:'Amatic SC';-inkscape-font-specification:'Amatic SC';fill:#000000;fill-opacity:1;stroke-width:1.39962"
       y="829.97723"
       x="122.0947"
       id="tspan908"
       sodipodi:role="line">Хворіють</tspan></text>
  <text
     xml:space="preserve"
     style="font-size:55.9849px;line-height:1.25;font-family:EchoRevival;-inkscape-font-specification:EchoRevival;fill:#000000;fill-opacity:1;stroke-width:1.39962"
     x="118.10277"
     y="986.23303"
     id="text914"><tspan
       sodipodi:role="line"
       id="tspan912"
       x="118.10277"
       y="986.23303"
       style="font-style:normal;font-variant:normal;font-weight:normal;font-stretch:normal;font-family:'Amatic SC';-inkscape-font-specification:'Amatic SC';fill:#000000;fill-opacity:1;stroke-width:1.39962">Померли</tspan></text>
</svg>
